AdventPro-thn.ufo
<glyph name="quotedbl" format="1">
  <advance width="223" height="962"/>
  <unicode hex="0022"/>
  <outline>
    <contour>
      <point x="164" y="723" type="line"/>
      <point x="164" y="743"/>
      <point x="193" y="743"/>
      <point x="193" y="723" type="curve"/>
      <point x="186" y="589" type="line"/>
      <point x="169" y="589" type="line"/>
    </contour>
    <contour>
      <point x="28" y="723" type="line"/>
      <point x="28" y="743"/>
      <point x="56" y="743"/>
      <point x="56" y="723" type="curve"/>
      <point x="50" y="589" type="line"/>
      <point x="33" y="589" type="line"/>
    </contour>
  </outline>
</glyph>
<glyph name="dollar" format="2">
  <advance width="525" height="962"/>
  <unicode hex="0024"/>
  <outline>
    <component base="S" xOffset="1.4644"/>
    <contour>
      <point x="266" y="-114" type="line"/>
      <point x="266" y="818" type="line"/>
      <point x="285" y="818" type="line"/>
      <point x="285" y="-114" type="line"/>
    </contour>
  </outline>
</glyph>
<glyph name="percent" format="2">
  <advance width="709" height="962"/>
  <unicode hex="0025"/>
  <outline>
    <contour>
      <point x="68" y="0" type="line"/>
      <point x="607" y="700" type="line"/>
      <point x="633" y="700" type="line"/>
      <point x="95" y="0" type="line"/>
    </contour>
    <contour>
      <point x="174" y="714" type="curve" smooth="yes"/>
      <point x="254" y="714"/>
      <point x="319" y="650"/>
      <point x="319" y="568" type="curve" smooth="yes"/>
      <point x="319" y="488"/>
      <point x="254" y="422"/>
      <point x="174" y="422" type="curve" smooth="yes"/>
      <point x="93" y="422"/>
      <point x="27" y="488"/>
      <point x="27" y="568" type="curve" smooth="yes"/>
      <point x="27" y="650"/>
      <point x="93" y="714"/>
    </contour>
    <contour>
      <point x="174" y="694" type="curve" smooth="yes"/>
      <point x="104" y="694"/>
      <point x="47" y="638"/>
      <point x="47" y="568" type="curve" smooth="yes"/>
      <point x="47" y="500"/>
      <point x="104" y="442"/>
      <point x="174" y="442" type="curve" smooth="yes"/>
      <point x="243" y="442"/>
      <point x="299" y="500"/>
      <point x="299" y="568" type="curve" smooth="yes"/>
      <point x="299" y="638"/>
      <point x="243" y="694"/>
    </contour>
    <contour>
      <point x="534" y="277" type="curve" smooth="yes"/>
      <point x="615" y="277"/>
      <point x="679" y="212"/>
      <point x="679" y="132" type="curve" smooth="yes"/>
      <point x="679" y="51"/>
      <point x="615" y="-14"/>
      <point x="534" y="-14" type="curve" smooth="yes"/>
      <point x="455" y="-14"/>
      <point x="389" y="51"/>
      <point x="389" y="132" type="curve" smooth="yes"/>
      <point x="389" y="212"/>
      <point x="455" y="277"/>
    </contour>
    <contour>
      <point x="534" y="257" type="curve" smooth="yes"/>
      <point x="466" y="257"/>
      <point x="409" y="201"/>
      <point x="409" y="132" type="curve" smooth="yes"/>
      <point x="409" y="63"/>
      <point x="466" y="7"/>
      <point x="534" y="7" type="curve" smooth="yes"/>
      <point x="603" y="7"/>
      <point x="660" y="63"/>
      <point x="660" y="132" type="curve" smooth="yes"/>
      <point x="660" y="201"/>
      <point x="603" y="257"/>
    </contour>
  </outline>
</glyph>
<glyph name="ampersand" format="2">
  <advance width="529" height="962"/>
  <unicode hex="0026"/>
  <outline>
    <contour>
      <point x="393" y="684" type="line"/>
      <point x="241" y="684" type="line" smooth="yes"/>
      <point x="155" y="684"/>
      <point x="112" y="630"/>
      <point x="112" y="556" type="curve" smooth="yes"/>
      <point x="112" y="465"/>
      <point x="219" y="404"/>
      <point x="275" y="404" type="curve" smooth="yes"/>
      <point x="380" y="404" type="line"/>
      <point x="380" y="507" type="line"/>
      <point x="398" y="507" type="line"/>
      <point x="398" y="404" type="line"/>
      <point x="498" y="404" type="line"/>
      <point x="489" y="385" type="line"/>
      <point x="398" y="385" type="line"/>
      <point x="398" y="137" type="line" smooth="yes"/>
      <point x="398" y="63"/>
      <point x="427" y="28"/>
      <point x="493" y="7" type="curve"/>
      <point x="488" y="-9" type="line"/>
      <point x="422" y="10"/>
      <point x="390" y="47"/>
      <point x="382" y="106" type="curve"/>
      <point x="358" y="33"/>
      <point x="286" y="0"/>
      <point x="224" y="-4" type="curve" smooth="yes"/>
      <point x="151" y="-10"/>
      <point x="29" y="5"/>
      <point x="29" y="162" type="curve" smooth="yes"/>
      <point x="29" y="255" type="line" smooth="yes"/>
      <point x="29" y="319"/>
      <point x="48" y="404"/>
      <point x="184" y="404" type="curve" smooth="yes"/>
      <point x="206" y="404" type="line"/>
      <point x="133" y="435"/>
      <point x="93" y="498"/>
      <point x="92" y="555" type="curve" smooth="yes"/>
      <point x="89" y="642"/>
      <point x="149" y="704"/>
      <point x="245" y="704" type="curve" smooth="yes"/>
      <point x="403" y="704" type="line"/>
    </contour>
    <contour>
      <point x="380" y="385" type="line"/>
      <point x="182" y="385" type="line" smooth="yes"/>
      <point x="79" y="385"/>
      <point x="48" y="332"/>
      <point x="48" y="256" type="curve" smooth="yes"/>
      <point x="48" y="160" type="line" smooth="yes"/>
      <point x="48" y="47"/>
      <point x="118" y="5"/>
      <point x="224" y="13" type="curve" smooth="yes"/>
      <point x="320" y="21"/>
      <point x="380" y="92"/>
      <point x="380" y="174" type="curve" smooth="yes"/>
    </contour>
  </outline>
</glyph>
<glyph name="hyphen" format="1">
  <advance width="391" height="962"/>
  <unicode hex="002D"/>
  <outline>
    <contour>
      <point x="33" y="394" type="line"/>
      <point x="33" y="414" type="line"/>
      <point x="353" y="414" type="line"/>
      <point x="353" y="394" type="line"/>
    </contour>
  </outline>
</glyph>
<glyph name="two" format="2">
  <advance width="413"/>
  <unicode hex="0032"/>
  <outline>
    <contour>
      <point x="40" y="590" type="line"/>
      <point x="70" y="670"/>
      <point x="128" y="710"/>
      <point x="219" y="710" type="curve" smooth="yes"/>
      <point x="302" y="710"/>
      <point x="382" y="640"/>
      <point x="380" y="548" type="curve" smooth="yes"/>
      <point x="379" y="505"/>
      <point x="364" y="458"/>
      <point x="332" y="412" type="curve" smooth="yes"/>
      <point x="50" y="20" type="line"/>
      <point x="378" y="20" type="line"/>
      <point x="378" y="0" type="line"/>
      <point x="28" y="0" type="line"/>
      <point x="28" y="20" type="line"/>
      <point x="318" y="423" type="line" smooth="yes"/>
      <point x="347" y="464"/>
      <point x="361" y="511"/>
      <point x="361" y="548" type="curve" smooth="yes"/>
      <point x="361" y="629"/>
      <point x="297" y="691"/>
      <point x="213" y="691" type="curve" smooth="yes"/>
      <point x="127" y="691"/>
      <point x="78" y="645"/>
      <point x="59" y="583" type="curve"/>
    </contour>
  </outline>
</glyph>
<glyph name="four" format="1">
  <advance width="465" height="962"/>
  <unicode hex="0034"/>
  <outline>
    <contour>
      <point x="344" y="0" type="line"/>
      <point x="345" y="394" type="line"/>
      <point x="15" y="394" type="line"/>
      <point x="187" y="700" type="line"/>
      <point x="207" y="700" type="line"/>
      <point x="47" y="412" type="line"/>
      <point x="345" y="412" type="line"/>
      <point x="345" y="700" type="line"/>
      <point x="364" y="700" type="line"/>
      <point x="364" y="412" type="line"/>
      <point x="437" y="412" type="line"/>
      <point x="432" y="394" type="line"/>
      <point x="364" y="394" type="line"/>
      <point x="364" y="0" type="line"/>
    </contour>
  </outline>
</glyph>
<glyph name="five" format="1">
  <advance width="440" height="962"/>
  <unicode hex="0035"/>
  <outline>
    <contour>
      <point x="80" y="412" type="line"/>
      <point x="175" y="414" type="line"/>
      <point x="338" y="414"/>
      <point x="412" y="320"/>
      <point x="412" y="199" type="curve" smooth="yes"/>
      <point x="412" y="76"/>
      <point x="317" y="-12"/>
      <point x="202" y="-12" type="curve" smooth="yes"/>
      <point x="107" y="-12"/>
      <point x="28" y="44"/>
      <point x="28" y="42" type="curve"/>
      <point x="36" y="59" type="line"/>
      <point x="35" y="61"/>
      <point x="114" y="7"/>
      <point x="201" y="7" type="curve" smooth="yes"/>
      <point x="297" y="7"/>
      <point x="393" y="77"/>
      <point x="393" y="200" type="curve" smooth="yes"/>
      <point x="393" y="298"/>
      <point x="334" y="394"/>
      <point x="176" y="394" type="curve" smooth="yes"/>
      <point x="59" y="394" type="line"/>
      <point x="92" y="700" type="line"/>
      <point x="357" y="700" type="line"/>
      <point x="357" y="680" type="line"/>
      <point x="109" y="680" type="line"/>
    </contour>
  </outline>
</glyph>
<glyph name="six" format="1">
  <advance width="482" height="962"/>
  <unicode hex="0036"/>
  <outline>
    <contour>
      <point x="276" y="681" type="line" smooth="yes"/>
      <point x="133" y="681"/>
      <point x="50" y="597"/>
      <point x="50" y="459" type="curve" smooth="yes"/>
      <point x="50" y="289" type="line"/>
      <point x="91" y="378"/>
      <point x="166" y="415"/>
      <point x="242" y="415" type="curve" smooth="yes"/>
      <point x="360" y="415"/>
      <point x="457" y="322"/>
      <point x="457" y="203" type="curve" smooth="yes"/>
      <point x="457" y="85"/>
      <point x="360" y="-10"/>
      <point x="243" y="-10" type="curve" smooth="yes"/>
      <point x="126" y="-10"/>
      <point x="30" y="85"/>
      <point x="30" y="203" type="curve" smooth="yes"/>
      <point x="30" y="464" type="line" smooth="yes"/>
      <point x="30" y="612"/>
      <point x="127" y="699"/>
      <point x="275" y="699" type="curve" smooth="yes"/>
      <point x="309" y="699" type="line"/>
      <point x="309" y="681" type="line"/>
    </contour>
    <contour>
      <point x="243" y="396" type="curve" smooth="yes"/>
      <point x="137" y="396"/>
      <point x="50" y="310"/>
      <point x="50" y="203" type="curve" smooth="yes"/>
      <point x="50" y="96"/>
      <point x="137" y="9"/>
      <point x="243" y="9" type="curve" smooth="yes"/>
      <point x="350" y="9"/>
      <point x="436" y="96"/>
      <point x="436" y="203" type="curve" smooth="yes"/>
      <point x="436" y="310"/>
      <point x="350" y="396"/>
    </contour>
  </outline>
</glyph>
<glyph name="seven" format="2">
  <advance width="429" height="962"/>
  <unicode hex="0037"/>
  <outline>
    <contour>
      <point x="56" y="0" type="line"/>
      <point x="36" y="0" type="line"/>
      <point x="394" y="680" type="line"/>
      <point x="25" y="680" type="line"/>
      <point x="25" y="700" type="line"/>
      <point x="417" y="700" type="line"/>
      <point x="417" y="680" type="line"/>
    </contour>
  </outline>
</glyph>
<glyph name="eight" format="2">
  <advance width="470"/>
  <unicode hex="0038"/>
  <outline>
    <contour>
      <point x="235" y="709" type="curve" smooth="yes"/>
      <point x="334" y="709"/>
      <point x="402" y="636"/>
      <point x="402" y="538" type="curve" smooth="yes"/>
      <point x="402" y="468"/>
      <point x="357" y="408"/>
      <point x="290" y="386" type="curve"/>
      <point x="376" y="364"/>
      <point x="440" y="281"/>
      <point x="440" y="192" type="curve" smooth="yes"/>
      <point x="440" y="75"/>
      <point x="352" y="-12"/>
      <point x="235" y="-12" type="curve" smooth="yes"/>
      <point x="117" y="-12"/>
      <point x="26" y="72"/>
      <point x="26" y="192" type="curve" smooth="yes"/>
      <point x="26" y="284"/>
      <point x="90" y="360"/>
      <point x="176" y="386" type="curve"/>
      <point x="114" y="408"/>
      <point x="67" y="472"/>
      <point x="67" y="538" type="curve" smooth="yes"/>
      <point x="67" y="635"/>
      <point x="138" y="709"/>
    </contour>
    <contour>
      <point x="235" y="392" type="curve" smooth="yes"/>
      <point x="319" y="392"/>
      <point x="383" y="458"/>
      <point x="383" y="541" type="curve" smooth="yes"/>
      <point x="383" y="622"/>
      <point x="317" y="689"/>
      <point x="235" y="689" type="curve" smooth="yes"/>
      <point x="153" y="689"/>
      <point x="85" y="622"/>
      <point x="85" y="541" type="curve" smooth="yes"/>
      <point x="85" y="461"/>
      <point x="155" y="392"/>
    </contour>
    <contour>
      <point x="234" y="5" type="curve" smooth="yes"/>
      <point x="337" y="5"/>
      <point x="421" y="89"/>
      <point x="421" y="190" type="curve" smooth="yes"/>
      <point x="421" y="292"/>
      <point x="336" y="374"/>
      <point x="234" y="374" type="curve" smooth="yes"/>
      <point x="130" y="374"/>
      <point x="46" y="294"/>
      <point x="46" y="190" type="curve" smooth="yes"/>
      <point x="46" y="89"/>
      <point x="130" y="5"/>
    </contour>
  </outline>
</glyph>
<glyph name="nine" format="2">
  <advance width="481" height="962"/>
  <unicode hex="0039"/>
  <outline>
    <contour>
      <point x="235" y="708" type="curve" smooth="yes"/>
      <point x="355" y="708"/>
      <point x="447" y="616"/>
      <point x="447" y="496" type="curve" smooth="yes"/>
      <point x="447" y="244" type="line" smooth="yes"/>
      <point x="447" y="91"/>
      <point x="346" y="-1"/>
      <point x="204" y="-1" type="curve" smooth="yes"/>
      <point x="169" y="-1" type="line"/>
      <point x="169" y="20" type="line"/>
      <point x="207" y="20" type="line" smooth="yes"/>
      <point x="349" y="20"/>
      <point x="428" y="113"/>
      <point x="428" y="247" type="curve" smooth="yes"/>
      <point x="428" y="409" type="line"/>
      <point x="388" y="320"/>
      <point x="313" y="284"/>
      <point x="236" y="284" type="curve" smooth="yes"/>
      <point x="116" y="284"/>
      <point x="22" y="376"/>
      <point x="22" y="496" type="curve" smooth="yes"/>
      <point x="22" y="614"/>
      <point x="117" y="708"/>
    </contour>
    <contour>
      <point x="235" y="689" type="curve" smooth="yes"/>
      <point x="129" y="689"/>
      <point x="41" y="605"/>
      <point x="41" y="497" type="curve" smooth="yes"/>
      <point x="41" y="389"/>
      <point x="129" y="302"/>
      <point x="235" y="302" type="curve" smooth="yes"/>
      <point x="341" y="302"/>
      <point x="428" y="389"/>
      <point x="428" y="497" type="curve" smooth="yes"/>
      <point x="428" y="605"/>
      <point x="341" y="689"/>
    </contour>
  </outline>
</glyph>
<glyph name="greater" format="2">
  <advance width="351" height="962"/>
  <unicode hex="003E"/>
  <outline>
    <contour>
      <point x="30" y="625" type="line"/>
      <point x="44" y="637" type="line"/>
      <point x="322" y="359" type="line"/>
      <point x="44" y="79" type="line"/>
      <point x="30" y="95" type="line"/>
      <point x="299" y="357" type="line"/>
    </contour>
  </outline>
</glyph>
<glyph name="at" format="2">
  <advance width="719" height="962"/>
  <unicode hex="0040"/>
  <outline>
    <contour>
      <point x="690" y="474" type="line"/>
      <point x="666" y="454"/>
      <point x="656" y="444"/>
      <point x="656" y="387" type="curve" smooth="yes"/>
      <point x="656" y="171" type="line" smooth="yes"/>
      <point x="656" y="23"/>
      <point x="496" y="-67"/>
      <point x="337" y="-67" type="curve" smooth="yes"/>
      <point x="154" y="-67"/>
      <point x="30" y="32"/>
      <point x="30" y="202" type="curve" smooth="yes"/>
      <point x="30" y="334" type="line" smooth="yes"/>
      <point x="30" y="473"/>
      <point x="120" y="581"/>
      <point x="292" y="581" type="curve" smooth="yes"/>
      <point x="395" y="581"/>
      <point x="490" y="537"/>
      <point x="510" y="443" type="curve"/>
      <point x="579" y="443" type="line"/>
      <point x="575" y="425" type="line"/>
      <point x="513" y="425" type="line"/>
      <point x="513" y="69" type="line"/>
      <point x="514" y="70"/>
      <point x="401" y="61"/>
      <point x="329" y="61" type="curve" smooth="yes"/>
      <point x="195" y="61"/>
      <point x="154" y="141"/>
      <point x="154" y="223" type="curve" smooth="yes"/>
      <point x="154" y="289" type="line" smooth="yes"/>
      <point x="154" y="409"/>
      <point x="229" y="443"/>
      <point x="307" y="443" type="curve" smooth="yes"/>
      <point x="494" y="443" type="line"/>
      <point x="476" y="510"/>
      <point x="414" y="563"/>
      <point x="292" y="563" type="curve" smooth="yes"/>
      <point x="172" y="563"/>
      <point x="49" y="502"/>
      <point x="49" y="339" type="curve" smooth="yes"/>
      <point x="49" y="199" type="line" smooth="yes"/>
      <point x="49" y="54"/>
      <point x="148" y="-48"/>
      <point x="342" y="-48" type="curve" smooth="yes"/>
      <point x="485" y="-48"/>
      <point x="640" y="35"/>
      <point x="640" y="169" type="curve" smooth="yes"/>
      <point x="640" y="372" type="line" smooth="yes"/>
      <point x="640" y="438"/>
      <point x="643" y="460"/>
      <point x="681" y="486" type="curve"/>
    </contour>
    <contour>
      <point x="302" y="425" type="line" smooth="yes"/>
      <point x="213" y="425"/>
      <point x="170" y="374"/>
      <point x="170" y="286" type="curve" smooth="yes"/>
      <point x="170" y="228" type="line" smooth="yes"/>
      <point x="170" y="130"/>
      <point x="223" y="79"/>
      <point x="328" y="79" type="curve" smooth="yes"/>
      <point x="397" y="79"/>
      <point x="496" y="88"/>
      <point x="495" y="87" type="curve"/>
      <point x="495" y="425" type="line"/>
    </contour>
  </outline>
</glyph>
<glyph name="A" format="2">
  <advance width="544" height="962"/>
  <unicode hex="0041"/>
  <outline>
    <contour>
      <point x="526" y="0" type="line"/>
      <point x="505" y="0" type="line"/>
      <point x="406" y="281" type="line"/>
      <point x="139" y="281" type="line"/>
      <point x="40" y="0" type="line"/>
      <point x="20" y="0" type="line"/>
      <point x="266" y="700" type="line"/>
      <point x="280" y="700" type="line"/>
    </contour>
    <contour>
      <point x="147" y="300" type="line"/>
      <point x="400" y="300" type="line"/>
      <point x="273" y="660" type="line"/>
    </contour>
  </outline>
</glyph>
<glyph name="H" format="2">
  <advance width="515" height="962"/>
  <unicode hex="0048"/>
  <outline>
    <contour>
      <point x="453" y="412" type="line"/>
      <point x="453" y="700" type="line"/>
      <point x="471" y="700" type="line"/>
      <point x="471" y="0" type="line"/>
      <point x="453" y="0" type="line"/>
      <point x="453" y="394" type="line"/>
      <point x="59" y="394" type="line"/>
      <point x="59" y="0" type="line"/>
      <point x="41" y="0" type="line"/>
      <point x="41" y="700" type="line"/>
      <point x="59" y="700" type="line"/>
      <point x="59" y="412" type="line"/>
    </contour>
  </outline>
</glyph>
<glyph name="L" format="2">
  <advance width="420" height="962"/>
  <unicode hex="004C"/>
  <outline>
    <contour>
      <point x="41" y="0" type="line"/>
      <point x="41" y="700" type="line"/>
      <point x="60" y="700" type="line"/>
      <point x="60" y="20" type="line"/>
      <point x="402" y="20" type="line"/>
      <point x="402" y="0" type="line"/>
    </contour>
  </outline>
</glyph>
<glyph name="M" format="1">
  <advance width="621" height="962"/>
  <unicode hex="004D"/>
  <outline>
    <contour>
      <point x="59" y="700" type="line"/>
      <point x="309" y="30" type="line"/>
      <point x="560" y="700" type="line"/>
      <point x="578" y="700" type="line"/>
      <point x="578" y="0" type="line"/>
      <point x="560" y="0" type="line"/>
      <point x="560" y="648" type="line"/>
      <point x="317" y="0" type="line"/>
      <point x="299" y="0" type="line"/>
      <point x="59" y="648" type="line"/>
      <point x="59" y="0" type="line"/>
      <point x="41" y="0" type="line"/>
      <point x="41" y="700" type="line"/>
    </contour>
  </outline>
</glyph>
<glyph name="N" format="2">
  <advance width="577" height="962"/>
  <unicode hex="004E"/>
  <outline>
    <contour>
      <point x="534" y="700" type="line"/>
      <point x="534" y="0" type="line"/>
      <point x="517" y="0" type="line"/>
      <point x="58" y="670" type="line"/>
      <point x="58" y="0" type="line"/>
      <point x="41" y="0" type="line"/>
      <point x="41" y="700" type="line"/>
      <point x="58" y="700" type="line"/>
      <point x="517" y="32" type="line"/>
      <point x="517" y="700" type="line"/>
    </contour>
  </outline>
</glyph>
<glyph name="O" format="2">
  <advance width="488" height="962"/>
  <unicode hex="004F"/>
  <outline>
    <contour>
      <point x="33" y="508" type="line" smooth="yes"/>
      <point x="33" y="638"/>
      <point x="113" y="716"/>
      <point x="245" y="716" type="curve" smooth="yes"/>
      <point x="376" y="716"/>
      <point x="453" y="638"/>
      <point x="453" y="507" type="curve" smooth="yes"/>
      <point x="453" y="186" type="line" smooth="yes"/>
      <point x="453" y="63"/>
      <point x="369" y="-11"/>
      <point x="244" y="-11" type="curve" smooth="yes"/>
      <point x="127" y="-11"/>
      <point x="33" y="56"/>
      <point x="33" y="186" type="curve" smooth="yes"/>
    </contour>
    <contour>
      <point x="52" y="185" type="line" smooth="yes"/>
      <point x="52" y="66"/>
      <point x="138" y="8"/>
      <point x="244" y="8" type="curve" smooth="yes"/>
      <point x="352" y="8"/>
      <point x="434" y="66"/>
      <point x="434" y="185" type="curve" smooth="yes"/>
      <point x="434" y="510" type="line" smooth="yes"/>
      <point x="434" y="623"/>
      <point x="370" y="696"/>
      <point x="245" y="696" type="curve" smooth="yes"/>
      <point x="118" y="696"/>
      <point x="52" y="622"/>
      <point x="52" y="508" type="curve" smooth="yes"/>
    </contour>
  </outline>
</glyph>
<glyph name="Q" format="2">
  <advance width="488"/>
  <unicode hex="0051"/>
  <outline>
    <component base="O"/>
    <contour>
      <point x="250" y="43" type="line" smooth="yes"/>
      <point x="250" y="-40"/>
      <point x="296" y="-76"/>
      <point x="392" y="-76" type="curve"/>
      <point x="390" y="-97" type="line"/>
      <point x="282" y="-97"/>
      <point x="230" y="-52"/>
      <point x="230" y="43" type="curve" smooth="yes"/>
      <point x="230" y="174" type="line"/>
      <point x="250" y="174" type="line"/>
    </contour>
  </outline>
</glyph>
<glyph name="U" format="1">
  <advance width="498" height="962"/>
  <unicode hex="0055"/>
  <outline>
    <contour>
      <point x="458" y="186" type="line" smooth="yes"/>
      <point x="458" y="58"/>
      <point x="372" y="-11"/>
      <point x="249" y="-11" type="curve" smooth="yes"/>
      <point x="124" y="-11"/>
      <point x="38" y="56"/>
      <point x="38" y="186" type="curve" smooth="yes"/>
      <point x="38" y="700" type="line"/>
      <point x="56" y="700" type="line"/>
      <point x="56" y="185" type="line" smooth="yes"/>
      <point x="56" y="69"/>
      <point x="139" y="8"/>
      <point x="249" y="8" type="curve" smooth="yes"/>
      <point x="362" y="8"/>
      <point x="438" y="67"/>
      <point x="438" y="185" type="curve" smooth="yes"/>
      <point x="438" y="700" type="line"/>
      <point x="458" y="700" type="line"/>
    </contour>
  </outline>
</glyph>
<glyph name="X" format="2">
  <advance width="559" height="962"/>
  <unicode hex="0058"/>
  <outline>
    <contour>
      <point x="279" y="382" type="line"/>
      <point x="492" y="700" type="line"/>
      <point x="516" y="700" type="line"/>
      <point x="292" y="364" type="line"/>
      <point x="536" y="0" type="line"/>
      <point x="511" y="0" type="line"/>
      <point x="279" y="346" type="line"/>
      <point x="50" y="0" type="line"/>
      <point x="25" y="0" type="line"/>
      <point x="268" y="364" type="line"/>
      <point x="43" y="700" type="line"/>
      <point x="65" y="700" type="line"/>
    </contour>
  </outline>
</glyph>
<glyph name="bracketleft" format="2">
  <advance width="219"/>
  <unicode hex="005B"/>
  <outline>
    <contour>
      <point x="61" y="798" type="line"/>
      <point x="61" y="-96" type="line"/>
      <point x="204" y="-97" type="line"/>
      <point x="204" y="-114" type="line"/>
      <point x="42" y="-114" type="line"/>
      <point x="42" y="818" type="line"/>
      <point x="204" y="818" type="line"/>
      <point x="204" y="800" type="line"/>
    </contour>
  </outline>
</glyph>
<glyph name="bracketright" format="2">
  <advance width="220" height="962"/>
  <unicode hex="005D"/>
  <outline>
    <contour>
      <point x="15" y="-114" type="line"/>
      <point x="15" y="-97" type="line"/>
      <point x="158" y="-96" type="line"/>
      <point x="158" y="798" type="line"/>
      <point x="15" y="800" type="line"/>
      <point x="15" y="818" type="line"/>
      <point x="177" y="818" type="line"/>
      <point x="177" y="-114" type="line"/>
    </contour>
  </outline>
</glyph>
<glyph name="asciicircum" format="2">
  <advance width="267"/>
  <unicode hex="005E"/>
  <outline>
    <contour>
      <point x="255" y="781" type="line"/>
      <point x="240" y="765" type="line"/>
      <point x="135" y="870" type="line"/>
      <point x="26" y="765" type="line"/>
      <point x="11" y="780" type="line"/>
      <point x="135" y="900" type="line"/>
    </contour>
  </outline>
</glyph>
<glyph name="e" format="1">
  <advance width="420" height="962"/>
  <unicode hex="0065"/>
  <outline>
    <contour>
      <point x="49" y="133" type="line" smooth="yes"/>
      <point x="49" y="37"/>
      <point x="118" y="7"/>
      <point x="203" y="7" type="curve" smooth="yes"/>
      <point x="257" y="7"/>
      <point x="300" y="20"/>
      <point x="357" y="52" type="curve"/>
      <point x="365" y="35" type="line"/>
      <point x="316" y="5"/>
      <point x="261" y="-12"/>
      <point x="205" y="-12" type="curve" smooth="yes"/>
      <point x="108" y="-12"/>
      <point x="30" y="25"/>
      <point x="30" y="134" type="curve" smooth="yes"/>
      <point x="30" y="339" type="line" smooth="yes"/>
      <point x="30" y="451"/>
      <point x="109" y="510"/>
      <point x="215" y="510" type="curve" smooth="yes"/>
      <point x="320" y="510"/>
      <point x="391" y="454"/>
      <point x="391" y="342" type="curve" smooth="yes"/>
      <point x="391" y="247" type="line"/>
      <point x="49" y="230" type="line"/>
    </contour>
    <contour>
      <point x="371" y="343" type="line" smooth="yes"/>
      <point x="371" y="444"/>
      <point x="309" y="493"/>
      <point x="214" y="493" type="curve" smooth="yes"/>
      <point x="113" y="493"/>
      <point x="49" y="435"/>
      <point x="49" y="333" type="curve" smooth="yes"/>
      <point x="49" y="249" type="line"/>
      <point x="371" y="265" type="line"/>
    </contour>
  </outline>
</glyph>
<glyph name="t" format="2">
  <advance width="215"/>
  <unicode hex="0074"/>
  <outline>
    <contour>
      <point x="59" y="132" type="line" smooth="yes"/>
      <point x="59" y="59"/>
      <point x="85" y="27"/>
      <point x="151" y="4" type="curve"/>
      <point x="144" y="-13" type="line"/>
      <point x="71" y="9"/>
      <point x="39" y="54"/>
      <point x="39" y="132" type="curve" smooth="yes"/>
      <point x="39" y="700" type="line"/>
      <point x="59" y="700" type="line"/>
      <point x="59" y="500" type="line"/>
      <point x="216" y="500" type="line"/>
      <point x="207" y="482" type="line"/>
      <point x="59" y="482" type="line"/>
    </contour>
  </outline>
</glyph>
<glyph name="u" format="1">
  <advance width="444" height="962"/>
  <unicode hex="0075"/>
  <outline>
    <contour>
      <point x="385" y="98" type="line"/>
      <point x="361" y="32"/>
      <point x="296" y="-5"/>
      <point x="229" y="-9" type="curve" smooth="yes"/>
      <point x="156" y="-14"/>
      <point x="34" y="-1"/>
      <point x="34" y="157" type="curve" smooth="yes"/>
      <point x="34" y="500" type="line"/>
      <point x="54" y="500" type="line"/>
      <point x="54" y="156" type="line" smooth="yes"/>
      <point x="54" y="43"/>
      <point x="121" y="2"/>
      <point x="229" y="9" type="curve" smooth="yes"/>
      <point x="326" y="16"/>
      <point x="385" y="88"/>
      <point x="385" y="169" type="curve" smooth="yes"/>
      <point x="385" y="500" type="line"/>
      <point x="405" y="500" type="line"/>
      <point x="405" y="0" type="line"/>
      <point x="385" y="0" type="line"/>
    </contour>
  </outline>
</glyph>
<glyph name="w" format="1">
  <advance width="670" height="962"/>
  <unicode hex="0077"/>
  <outline>
    <contour>
      <point x="337" y="500" type="line"/>
      <point x="472" y="36" type="line"/>
      <point x="627" y="500" type="line"/>
      <point x="647" y="500" type="line"/>
      <point x="479" y="0" type="line"/>
      <point x="466" y="0" type="line"/>
      <point x="331" y="454" type="line"/>
      <point x="199" y="0" type="line"/>
      <point x="187" y="0" type="line"/>
      <point x="18" y="500" type="line"/>
      <point x="38" y="500" type="line"/>
      <point x="192" y="36" type="line"/>
      <point x="326" y="500" type="line"/>
    </contour>
  </outline>
</glyph>
<glyph name="x" format="2">
  <advance width="391" height="962"/>
  <unicode hex="0078"/>
  <outline>
    <contour>
      <point x="199" y="265" type="line"/>
      <point x="341" y="500" type="line"/>
      <point x="363" y="500" type="line"/>
      <point x="210" y="250" type="line"/>
      <point x="360" y="0" type="line"/>
      <point x="339" y="0" type="line"/>
      <point x="199" y="234" type="line"/>
      <point x="51" y="0" type="line"/>
      <point x="29" y="0" type="line"/>
      <point x="188" y="251" type="line"/>
      <point x="36" y="500" type="line"/>
      <point x="59" y="500" type="line"/>
    </contour>
  </outline>
</glyph>
<glyph name="z" format="2">
  <advance width="422"/>
  <unicode hex="007A"/>
  <outline>
    <contour>
      <point x="376" y="501" type="line"/>
      <point x="376" y="483" type="line"/>
      <point x="52" y="19" type="line"/>
      <point x="396" y="18" type="line"/>
      <point x="396" y="0" type="line"/>
      <point x="29" y="0" type="line"/>
      <point x="29" y="19" type="line"/>
      <point x="352" y="483" type="line"/>
      <point x="38" y="484" type="line"/>
      <point x="38" y="501" type="line"/>
    </contour>
  </outline>
</glyph>
<glyph name="braceleft" format="2">
  <advance width="236" height="962"/>
  <unicode hex="007B"/>
  <outline>
    <contour>
      <point x="125" y="517" type="line" smooth="yes"/>
      <point x="125" y="447.703"/>
      <point x="111.673" y="398.234"/>
      <point x="56" y="353" type="curve"/>
      <point x="111.479" y="307.923"/>
      <point x="125" y="259.192"/>
      <point x="125" y="190" type="curve" smooth="yes"/>
      <point x="125" y="76" type="line" smooth="yes"/>
      <point x="125" y="-69"/>
      <point x="217" y="-99"/>
      <point x="221" y="-99" type="curve"/>
      <point x="217" y="-118" type="line"/>
      <point x="214" y="-118"/>
      <point x="107" y="-85"/>
      <point x="107" y="76" type="curve" smooth="yes"/>
      <point x="107" y="190" type="line" smooth="yes"/>
      <point x="107" y="257.587"/>
      <point x="92.9582" y="303.031"/>
      <point x="37" y="345" type="curve" smooth="yes"/>
      <point x="26" y="353" type="line"/>
      <point x="37" y="361" type="line" smooth="yes"/>
      <point x="93.4186" y="403.314"/>
      <point x="107" y="448.935"/>
      <point x="107" y="517" type="curve" smooth="yes"/>
      <point x="107" y="630" type="line" smooth="yes"/>
      <point x="107" y="792"/>
      <point x="214" y="820"/>
      <point x="217" y="823" type="curve"/>
      <point x="220" y="803" type="line"/>
      <point x="217" y="803"/>
      <point x="125" y="774"/>
      <point x="125" y="630" type="curve" smooth="yes"/>
    </contour>
  </outline>
</glyph>
<glyph name="cent" format="2">
  <advance width="378" height="962"/>
  <unicode hex="00A2"/>
  <outline>
    <component base="c"/>
    <contour>
      <point x="199" y="-114" type="line"/>
      <point x="199" y="248.96" type="line"/>
      <point x="199" y="623" type="line"/>
      <point x="216" y="623" type="line"/>
      <point x="216" y="245.056" type="line"/>
      <point x="216" y="-114" type="line"/>
    </contour>
  </outline>
</glyph>
<glyph name="ordfeminine" format="1">
  <advance width="326" height="962"/>
  <unicode hex="00AA"/>
  <outline>
    <contour>
      <point x="291" y="390" type="curve"/>
      <point x="244" y="385"/>
      <point x="212" y="382"/>
      <point x="191" y="379" type="curve"/>
      <point x="41" y="377"/>
      <point x="22" y="455"/>
      <point x="22" y="517" type="curve" smooth="yes"/>
      <point x="22" y="566"/>
      <point x="48" y="630"/>
      <point x="121" y="630" type="curve" smooth="yes"/>
      <point x="166" y="630"/>
      <point x="217" y="610"/>
      <point x="273" y="570" type="curve"/>
      <point x="273" y="611"/>
      <point x="263" y="642"/>
      <point x="243" y="660" type="curve" smooth="yes"/>
      <point x="219" y="683"/>
      <point x="180" y="692"/>
      <point x="124" y="693" type="curve"/>
      <point x="127" y="709" type="line"/>
      <point x="189" y="709"/>
      <point x="234" y="697"/>
      <point x="257" y="671" type="curve" smooth="yes"/>
      <point x="280" y="647"/>
      <point x="291" y="608"/>
      <point x="291" y="555" type="curve"/>
      <point x="291" y="556"/>
      <point x="291" y="391"/>
    </contour>
    <contour>
      <point x="272" y="549" type="line"/>
      <point x="214" y="591"/>
      <point x="164" y="614"/>
      <point x="122" y="614" type="curve" smooth="yes"/>
      <point x="57" y="614"/>
      <point x="41" y="550"/>
      <point x="41" y="514" type="curve" smooth="yes"/>
      <point x="41" y="470"/>
      <point x="50" y="438"/>
      <point x="87" y="415" type="curve" smooth="yes"/>
      <point x="128" y="391"/>
      <point x="206" y="397"/>
      <point x="272" y="405" type="curve"/>
    </contour>
  </outline>
</glyph>
<glyph name="paragraph" format="2">
  <advance width="605"/>
  <unicode hex="00B6"/>
  <outline>
    <contour>
      <point x="220" y="283" type="line" smooth="yes"/>
      <point x="86" y="283"/>
      <point x="29" y="357"/>
      <point x="29" y="495" type="curve" smooth="yes"/>
      <point x="29" y="625"/>
      <point x="87" y="702"/>
      <point x="213" y="702" type="curve" smooth="yes"/>
      <point x="562" y="702" type="line"/>
      <point x="562" y="1" type="line"/>
      <point x="542" y="1" type="line"/>
      <point x="542" y="682" type="line"/>
      <point x="463" y="682" type="line"/>
      <point x="463" y="1" type="line"/>
      <point x="443" y="1" type="line"/>
      <point x="443" y="283" type="line"/>
    </contour>
    <contour>
      <point x="212" y="682" type="line" smooth="yes"/>
      <point x="97" y="682"/>
      <point x="47" y="614"/>
      <point x="47" y="495" type="curve" smooth="yes"/>
      <point x="47" y="371"/>
      <point x="99" y="301"/>
      <point x="222" y="301" type="curve" smooth="yes"/>
      <point x="443" y="301" type="line"/>
      <point x="443" y="682" type="line"/>
    </contour>
  </outline>
</glyph>
<glyph name="cedilla" format="1">
  <advance width="267" height="962"/>
  <unicode hex="00B8"/>
  <outline>
    <contour>
      <point x="151" y="0" type="line"/>
      <point x="124" y="-46" type="line"/>
      <point x="146" y="-46"/>
      <point x="150" y="-46"/>
      <point x="155" y="-46" type="curve" smooth="yes"/>
      <point x="215" y="-46"/>
      <point x="249" y="-86"/>
      <point x="249" y="-137" type="curve" smooth="yes"/>
      <point x="249" y="-191"/>
      <point x="211" y="-225"/>
      <point x="159" y="-227" type="curve" smooth="yes"/>
      <point x="114" y="-229"/>
      <point x="92" y="-222"/>
      <point x="57" y="-214" type="curve"/>
      <point x="63" y="-197" type="line"/>
      <point x="62" y="-197"/>
      <point x="108" y="-212"/>
      <point x="158" y="-208" type="curve" smooth="yes"/>
      <point x="175" y="-207"/>
      <point x="230" y="-200"/>
      <point x="230" y="-137" type="curve" smooth="yes"/>
      <point x="230" y="-97"/>
      <point x="200" y="-67"/>
      <point x="158" y="-67" type="curve" smooth="yes"/>
      <point x="142" y="-67"/>
      <point x="122" y="-67"/>
      <point x="101" y="-67" type="curve"/>
      <point x="101" y="-46" type="line"/>
      <point x="130" y="0" type="line"/>
    </contour>
  </outline>
</glyph>
<glyph name="ordmasculine" format="2">
	<advance width="340"/>
	<unicode hex="00BA"/>
	<outline>
		<contour>
			<point x="305" y="503" type="line" smooth="yes"/>
			<point x="305" y="429"/>
			<point x="260" y="379"/>
			<point x="172" y="379" type="curve" smooth="yes"/>
			<point x="78" y="379"/>
			<point x="35" y="434"/>
			<point x="35" y="503" type="curve" smooth="yes"/>
			<point x="35" y="586" type="line" smooth="yes"/>
			<point x="35" y="667"/>
			<point x="85" y="711"/>
			<point x="172" y="711" type="curve" smooth="yes"/>
			<point x="259" y="711"/>
			<point x="305" y="664"/>
			<point x="305" y="586" type="curve" smooth="yes"/>
		</contour>
		<contour>
			<point x="286" y="587" type="line" smooth="yes"/>
			<point x="286" y="657"/>
			<point x="242" y="692"/>
			<point x="172" y="692" type="curve" smooth="yes"/>
			<point x="93" y="692"/>
			<point x="54" y="653"/>
			<point x="54" y="587" type="curve" smooth="yes"/>
			<point x="54" y="505" type="line" smooth="yes"/>
			<point x="54" y="444"/>
			<point x="90" y="398"/>
			<point x="172" y="398" type="curve" smooth="yes"/>
			<point x="253" y="398"/>
			<point x="286" y="443"/>
			<point x="286" y="505" type="curve" smooth="yes"/>
		</contour>
	</outline>
</glyph>
<glyph name="oslash" format="2">
  <advance width="427"/>
  <unicode hex="00F8"/>
  <outline>
    <component base="o"/>
    <contour>
      <point x="345" y="514" type="line"/>
      <point x="106" y="-20" type="line"/>
      <point x="84" y="-20" type="line"/>
      <point x="324" y="514" type="line"/>
    </contour>
  </outline>
</glyph>
<glyph name="Hbar" format="1">
  <advance width="515" height="962"/>
  <unicode hex="0126"/>
  <outline>
    <component base="H"/>
    <contour>
      <point x="505" y="500" type="line"/>
      <point x="6" y="500" type="line"/>
      <point x="6" y="520" type="line"/>
      <point x="505" y="520" type="line"/>
    </contour>
  </outline>
</glyph>
<glyph name="IJ" format="1">
  <advance width="560" height="962"/>
  <unicode hex="0132"/>
  <outline>
    <contour>
      <point x="521" y="700" type="line"/>
      <point x="521" y="186" type="line" smooth="yes"/>
      <point x="521" y="58"/>
      <point x="435" y="-11"/>
      <point x="312" y="-11" type="curve" smooth="yes"/>
      <point x="187" y="-11"/>
      <point x="102" y="55"/>
      <point x="102" y="186" type="curve" smooth="yes"/>
      <point x="102" y="235" type="line"/>
      <point x="120" y="235" type="line"/>
      <point x="120" y="185" type="line" smooth="yes"/>
      <point x="120" y="64"/>
      <point x="206" y="7"/>
      <point x="312" y="7" type="curve" smooth="yes"/>
      <point x="425" y="7"/>
      <point x="502" y="67"/>
      <point x="502" y="185" type="curve" smooth="yes"/>
      <point x="502" y="679" type="line"/>
      <point x="416" y="681" type="line"/>
      <point x="416" y="700" type="line"/>
    </contour>
    <contour>
      <point x="120" y="700" type="line"/>
      <point x="120" y="263" type="line"/>
      <point x="102" y="263" type="line"/>
      <point x="102" y="678" type="line"/>
      <point x="15" y="681" type="line"/>
      <point x="15" y="700" type="line"/>
    </contour>
  </outline>
</glyph>
<glyph name="ij" format="2">
  <advance width="461"/>
  <unicode hex="0133"/>
  <outline>
    <contour>
      <point x="57" y="710" type="curve" smooth="yes"/>
      <point x="67" y="710"/>
      <point x="74" y="704"/>
      <point x="74" y="693" type="curve" smooth="yes"/>
      <point x="74" y="684"/>
      <point x="67" y="676"/>
      <point x="57" y="676" type="curve" smooth="yes"/>
      <point x="48" y="676"/>
      <point x="40" y="684"/>
      <point x="40" y="693" type="curve" smooth="yes"/>
      <point x="40" y="704"/>
      <point x="48" y="710"/>
    </contour>
    <contour>
      <point x="424" y="693" type="curve" smooth="yes"/>
      <point x="424" y="684"/>
      <point x="418" y="676"/>
      <point x="407" y="676" type="curve" smooth="yes"/>
      <point x="398" y="676"/>
      <point x="391" y="684"/>
      <point x="391" y="693" type="curve" smooth="yes"/>
      <point x="391" y="704"/>
      <point x="398" y="709"/>
      <point x="407" y="709" type="curve" smooth="yes"/>
      <point x="418" y="709"/>
      <point x="424" y="704"/>
    </contour>
    <contour>
      <point x="399" y="501" type="line"/>
      <point x="416" y="501" type="line"/>
      <point x="416" y="-67" type="line" smooth="yes"/>
      <point x="416" y="-152"/>
      <point x="387" y="-187"/>
      <point x="311" y="-213" type="curve"/>
      <point x="305" y="-196" type="line"/>
      <point x="371" y="-173"/>
      <point x="399" y="-143"/>
      <point x="399" y="-66" type="curve" smooth="yes"/>
      <point x="399" y="100" type="line"/>
      <point x="375" y="33"/>
      <point x="310" y="-4"/>
      <point x="242" y="-8" type="curve" smooth="yes"/>
      <point x="168" y="-12"/>
      <point x="46" y="1"/>
      <point x="46" y="158" type="curve" smooth="yes"/>
      <point x="46" y="501" type="line"/>
      <point x="66" y="501" type="line"/>
      <point x="66" y="157" type="line" smooth="yes"/>
      <point x="66" y="44"/>
      <point x="134" y="3"/>
      <point x="241" y="10" type="curve" smooth="yes"/>
      <point x="337" y="17"/>
      <point x="399" y="89"/>
      <point x="399" y="170" type="curve" smooth="yes"/>
    </contour>
  </outline>
</glyph>
<glyph name="Eng" format="1">
  <advance width="578" height="962"/>
  <unicode hex="014A"/>
  <outline>
    <contour>
      <point x="535" y="-67" type="line" smooth="yes"/>
      <point x="535" y="-153"/>
      <point x="503" y="-186"/>
      <point x="427" y="-213" type="curve"/>
      <point x="422" y="-196" type="line"/>
      <point x="488" y="-170"/>
      <point x="518" y="-143"/>
      <point x="518" y="-66" type="curve" smooth="yes"/>
      <point x="518" y="1" type="line"/>
      <point x="58" y="670" type="line"/>
      <point x="58" y="0" type="line"/>
      <point x="41" y="0" type="line"/>
      <point x="41" y="700" type="line"/>
      <point x="57" y="700" type="line"/>
      <point x="518" y="33" type="line"/>
      <point x="518" y="700" type="line"/>
      <point x="535" y="700" type="line"/>
    </contour>
  </outline>
</glyph>
<glyph name="eng" format="2">
  <advance width="443"/>
  <unicode hex="014B"/>
  <outline>
    <contour>
      <point x="407" y="-60" type="line" smooth="yes"/>
      <point x="407" y="-145"/>
      <point x="377" y="-181"/>
      <point x="300" y="-208" type="curve"/>
      <point x="294" y="-190" type="line"/>
      <point x="363" y="-163"/>
      <point x="387" y="-138"/>
      <point x="387" y="-60" type="curve" smooth="yes"/>
      <point x="387" y="347" type="line" smooth="yes"/>
      <point x="387" y="461"/>
      <point x="325" y="501"/>
      <point x="217" y="495" type="curve" smooth="yes"/>
      <point x="157" y="492"/>
      <point x="95" y="473"/>
      <point x="57" y="455" type="curve"/>
      <point x="57" y="0" type="line"/>
      <point x="38" y="0" type="line"/>
      <point x="38" y="500" type="line"/>
      <point x="57" y="500" type="line"/>
      <point x="57" y="473" type="line"/>
      <point x="91" y="487"/>
      <point x="152" y="507"/>
      <point x="204" y="510" type="curve" smooth="yes"/>
      <point x="291" y="515"/>
      <point x="407" y="503"/>
      <point x="407" y="346" type="curve" smooth="yes"/>
    </contour>
  </outline>
</glyph>
<glyph name="Tbar" format="2">
  <advance width="409"/>
  <unicode hex="0166"/>
  <outline>
    <component base="T"/>
    <contour>
      <point x="4" y="379" type="line"/>
      <point x="405" y="379" type="line"/>
      <point x="405" y="360" type="line"/>
      <point x="4" y="360" type="line"/>
    </contour>
  </outline>
</glyph>
<glyph name="dotlessj" format="2">
  <advance width="170"/>
  <unicode hex="0237"/>
  <outline>
    <contour>
      <point x="131" y="-68" type="line" smooth="yes"/>
      <point x="131" y="-150"/>
      <point x="101" y="-191"/>
      <point x="24" y="-214" type="curve"/>
      <point x="18" y="-197" type="line"/>
      <point x="85" y="-171"/>
      <point x="114" y="-145"/>
      <point x="114" y="-67" type="curve" smooth="yes"/>
      <point x="114" y="483" type="line"/>
      <point x="28" y="483" type="line"/>
      <point x="28" y="501" type="line"/>
      <point x="131" y="501" type="line"/>
    </contour>
  </outline>
</glyph>
<glyph name="breve" format="1">
  <advance width="267" height="962"/>
  <unicode hex="02D8"/>
  <outline>
    <contour>
      <point x="246" y="704" type="line"/>
      <point x="246" y="697" type="line" smooth="yes"/>
      <point x="246" y="635"/>
      <point x="196" y="584"/>
      <point x="134" y="584" type="curve" smooth="yes"/>
      <point x="72" y="584"/>
      <point x="20" y="635"/>
      <point x="20" y="697" type="curve" smooth="yes"/>
      <point x="20" y="704" type="line"/>
      <point x="42" y="704" type="line"/>
      <point x="42" y="697" type="line" smooth="yes"/>
      <point x="42" y="648"/>
      <point x="84" y="606"/>
      <point x="134" y="606" type="curve" smooth="yes"/>
      <point x="184" y="606"/>
      <point x="226" y="647"/>
      <point x="226" y="697" type="curve" smooth="yes"/>
      <point x="226" y="704" type="line"/>
    </contour>
  </outline>
</glyph>
<glyph name="ring" format="2">
  <advance width="267"/>
  <unicode hex="02DA"/>
  <outline>
    <contour>
      <point x="134" y="775" type="curve" smooth="yes"/>
      <point x="195" y="775"/>
      <point x="247" y="726"/>
      <point x="247" y="662" type="curve" smooth="yes"/>
      <point x="247" y="597"/>
      <point x="195" y="548"/>
      <point x="134" y="548" type="curve" smooth="yes"/>
      <point x="71" y="548"/>
      <point x="19" y="597"/>
      <point x="19" y="662" type="curve" smooth="yes"/>
      <point x="19" y="726"/>
      <point x="71" y="775"/>
    </contour>
    <contour>
      <point x="134" y="756" type="curve" smooth="yes"/>
      <point x="108" y="756"/>
      <point x="85" y="747"/>
      <point x="66" y="729" type="curve" smooth="yes"/>
      <point x="48" y="710"/>
      <point x="38" y="688"/>
      <point x="38" y="662" type="curve" smooth="yes"/>
      <point x="38" y="635"/>
      <point x="50" y="610"/>
      <point x="68" y="593" type="curve" smooth="yes"/>
      <point x="85" y="577"/>
      <point x="109" y="567"/>
      <point x="134" y="567" type="curve" smooth="yes"/>
      <point x="159" y="567"/>
      <point x="181" y="576"/>
      <point x="200" y="594" type="curve" smooth="yes"/>
      <point x="218" y="613"/>
      <point x="228" y="636"/>
      <point x="228" y="662" type="curve" smooth="yes"/>
      <point x="228" y="688"/>
      <point x="218" y="710"/>
      <point x="200" y="729" type="curve" smooth="yes"/>
      <point x="181" y="747"/>
      <point x="159" y="756"/>
    </contour>
  </outline>
</glyph>
<glyph name="brevecomb" format="2">
  <advance width="267" height="962"/>
  <unicode hex="0306"/>
  <outline>
    <contour>
      <point x="246" y="704" type="line"/>
      <point x="246" y="697" type="line" smooth="yes"/>
      <point x="246" y="635"/>
      <point x="196" y="584"/>
      <point x="134" y="584" type="curve" smooth="yes"/>
      <point x="72" y="584"/>
      <point x="20" y="635"/>
      <point x="20" y="697" type="curve" smooth="yes"/>
      <point x="20" y="704" type="line"/>
      <point x="42" y="704" type="line"/>
      <point x="42" y="697" type="line" smooth="yes"/>
      <point x="42" y="648"/>
      <point x="84" y="606"/>
      <point x="134" y="606" type="curve" smooth="yes"/>
      <point x="184" y="606"/>
      <point x="226" y="647"/>
      <point x="226" y="697" type="curve" smooth="yes"/>
      <point x="226" y="704" type="line"/>
    </contour>
  </outline>
</glyph>
<glyph name="caroncomb" format="2">
  <advance width="269"/>
  <unicode hex="030C"/>
  <outline>
    <contour>
      <point x="258" y="708" type="line"/>
      <point x="136" y="589" type="line"/>
      <point x="15" y="707" type="line"/>
      <point x="30" y="723" type="line"/>
      <point x="136" y="619" type="line"/>
      <point x="244" y="723" type="line"/>
    </contour>
  </outline>
</glyph>
<glyph name="Theta" format="2">
  <advance width="488"/>
  <unicode hex="0398"/>
  <outline>
    <component base="O"/>
    <contour>
      <point x="50" y="360" type="line"/>
      <point x="436" y="360" type="line"/>
      <point x="436" y="340" type="line"/>
      <point x="50" y="340" type="line"/>
    </contour>
  </outline>
  <guideline angle="0" x="0" y="340"/>
</glyph>
<glyph name="Phi" format="2">
  <advance width="593"/>
  <unicode hex="03A6"/>
  <outline>
    <contour>
      <point x="157" y="691" type="line"/>
      <point x="86" y="669"/>
      <point x="49" y="610"/>
      <point x="49" y="518" type="curve" smooth="yes"/>
      <point x="49" y="225" type="line" smooth="yes"/>
      <point x="49" y="101"/>
      <point x="117" y="46"/>
      <point x="223" y="46" type="curve" smooth="yes"/>
      <point x="286" y="46" type="line"/>
      <point x="286" y="605" type="line" smooth="yes"/>
      <point x="286" y="673"/>
      <point x="322" y="708"/>
      <point x="383" y="710" type="curve" smooth="yes"/>
      <point x="495" y="714"/>
      <point x="559" y="633"/>
      <point x="559" y="510" type="curve" smooth="yes"/>
      <point x="559" y="224" type="line" smooth="yes"/>
      <point x="559" y="106"/>
      <point x="500" y="30"/>
      <point x="371" y="30" type="curve" smooth="yes"/>
      <point x="303" y="30" type="line"/>
      <point x="303" y="-35" type="line"/>
      <point x="286" y="-33" type="line"/>
      <point x="286" y="30" type="line"/>
      <point x="221" y="30" type="line" smooth="yes"/>
      <point x="94" y="30"/>
      <point x="32" y="105"/>
      <point x="32" y="225" type="curve" smooth="yes"/>
      <point x="32" y="518" type="line" smooth="yes"/>
      <point x="32" y="618"/>
      <point x="71" y="681"/>
      <point x="149" y="706" type="curve"/>
    </contour>
    <contour>
      <point x="371" y="46" type="line" smooth="yes"/>
      <point x="475" y="46"/>
      <point x="541" y="101"/>
      <point x="541" y="224" type="curve" smooth="yes"/>
      <point x="541" y="512" type="line" smooth="yes"/>
      <point x="541" y="626"/>
      <point x="480" y="697"/>
      <point x="382" y="693" type="curve" smooth="yes"/>
      <point x="329" y="691"/>
      <point x="303" y="662"/>
      <point x="303" y="607" type="curve" smooth="yes"/>
      <point x="303" y="46" type="line"/>
    </contour>
  </outline>
</glyph>
<glyph name="beta" format="2">
  <advance width="442"/>
  <unicode hex="03B2"/>
  <outline>
    <contour>
      <point x="39" y="532" type="line" smooth="yes"/>
      <point x="39" y="628"/>
      <point x="100" y="703"/>
      <point x="203" y="703" type="curve" smooth="yes"/>
      <point x="304" y="703"/>
      <point x="351" y="641"/>
      <point x="351" y="554" type="curve" smooth="yes"/>
      <point x="351" y="498"/>
      <point x="313" y="434"/>
      <point x="236" y="404" type="curve"/>
      <point x="263" y="405" type="line" smooth="yes"/>
      <point x="358" y="409"/>
      <point x="413" y="356"/>
      <point x="413" y="259" type="curve" smooth="yes"/>
      <point x="413" y="169" type="line" smooth="yes"/>
      <point x="413" y="50"/>
      <point x="365" y="-11"/>
      <point x="220" y="-11" type="curve" smooth="yes"/>
      <point x="198" y="-11"/>
      <point x="101" y="-6"/>
      <point x="59" y="-2" type="curve"/>
      <point x="59" y="-213" type="line"/>
      <point x="39" y="-207" type="line"/>
    </contour>
    <contour>
      <point x="59" y="532" type="curve" smooth="yes"/>
      <point x="59" y="387" type="line"/>
      <point x="154" y="398" type="line" smooth="yes"/>
      <point x="228" y="407"/>
      <point x="331" y="460"/>
      <point x="331" y="555" type="curve" smooth="yes"/>
      <point x="331" y="629"/>
      <point x="290" y="683"/>
      <point x="204" y="683" type="curve" smooth="yes"/>
      <point x="112" y="683"/>
      <point x="59" y="617"/>
    </contour>
    <contour>
      <point x="59" y="18" type="line"/>
      <point x="57" y="19"/>
      <point x="175" y="8"/>
      <point x="220" y="7" type="curve" smooth="yes"/>
      <point x="378" y="5"/>
      <point x="395" y="90"/>
      <point x="395" y="162" type="curve" smooth="yes"/>
      <point x="395" y="251" type="line" smooth="yes"/>
      <point x="395" y="325"/>
      <point x="369" y="386"/>
      <point x="265" y="386" type="curve" smooth="yes"/>
      <point x="236" y="386"/>
      <point x="199" y="384"/>
      <point x="156" y="378" type="curve" smooth="yes"/>
      <point x="59" y="366" type="line"/>
    </contour>
  </outline>
</glyph>
<glyph name="epsilon" format="2">
  <advance width="393" height="962"/>
  <unicode hex="03B5"/>
  <outline>
    <contour>
      <point x="301" y="477" type="line"/>
      <point x="277" y="487"/>
      <point x="223" y="494"/>
      <point x="200" y="494" type="curve" smooth="yes"/>
      <point x="133" y="494"/>
      <point x="65" y="463"/>
      <point x="65" y="386" type="curve" smooth="yes"/>
      <point x="65" y="336"/>
      <point x="99" y="301"/>
      <point x="153" y="301" type="curve" smooth="yes"/>
      <point x="301" y="301" type="line"/>
      <point x="294" y="283" type="line"/>
      <point x="188" y="283" type="line" smooth="yes"/>
      <point x="92" y="283"/>
      <point x="45" y="226"/>
      <point x="45" y="149" type="curve" smooth="yes"/>
      <point x="45" y="67"/>
      <point x="106" y="9"/>
      <point x="205" y="9" type="curve" smooth="yes"/>
      <point x="294" y="9"/>
      <point x="365" y="45"/>
      <point x="364" y="43" type="curve"/>
      <point x="371" y="23" type="line"/>
      <point x="331" y="9"/>
      <point x="266" y="-11"/>
      <point x="208" y="-11" type="curve" smooth="yes"/>
      <point x="71" y="-11"/>
      <point x="26" y="75"/>
      <point x="26" y="152" type="curve" smooth="yes"/>
      <point x="26" y="222"/>
      <point x="62" y="270"/>
      <point x="123" y="289" type="curve"/>
      <point x="60" y="303"/>
      <point x="46" y="353"/>
      <point x="46" y="386" type="curve" smooth="yes"/>
      <point x="46" y="449"/>
      <point x="96" y="511"/>
      <point x="198" y="511" type="curve" smooth="yes"/>
      <point x="231" y="511"/>
      <point x="266" y="506"/>
      <point x="301" y="497" type="curve"/>
    </contour>
  </outline>
</glyph>
<glyph name="nu" format="2">
  <advance width="424"/>
  <unicode hex="03BD"/>
  <outline>
    <contour>
      <point x="17" y="500" type="line"/>
      <point x="36" y="500" type="line"/>
      <point x="209" y="36" type="line"/>
      <point x="382" y="500" type="line"/>
      <point x="402" y="500" type="line"/>
      <point x="216" y="0" type="line"/>
      <point x="203" y="0" type="line"/>
    </contour>
  </outline>
</glyph>
<glyph name="pi" format="2">
  <advance width="470" height="962"/>
  <unicode hex="03C0"/>
  <outline>
    <contour>
      <point x="414" y="77" type="line" smooth="yes"/>
      <point x="414" y="52"/>
      <point x="423" y="33"/>
      <point x="439" y="21" type="curve"/>
      <point x="426" y="4" type="line"/>
      <point x="407" y="21"/>
      <point x="396" y="44"/>
      <point x="396" y="79" type="curve" smooth="yes"/>
      <point x="396" y="484" type="line"/>
      <point x="56" y="484" type="line"/>
      <point x="56" y="0" type="line"/>
      <point x="38" y="0" type="line"/>
      <point x="38" y="500" type="line"/>
      <point x="414" y="500" type="line"/>
    </contour>
  </outline>
</glyph>
<glyph name="sigma" format="1">
  <advance width="426" height="962"/>
  <unicode hex="03C3"/>
  <outline>
    <contour>
      <point x="422" y="531" type="line"/>
      <point x="414" y="517"/>
      <point x="368" y="488"/>
      <point x="325" y="484" type="curve"/>
      <point x="376" y="449"/>
      <point x="396" y="402"/>
      <point x="396" y="320" type="curve" smooth="yes"/>
      <point x="396" y="185" type="line" smooth="yes"/>
      <point x="396" y="67"/>
      <point x="336" y="-10"/>
      <point x="214" y="-10" type="curve" smooth="yes"/>
      <point x="87" y="-10"/>
      <point x="27" y="77"/>
      <point x="27" y="185" type="curve" smooth="yes"/>
      <point x="27" y="328" type="line" smooth="yes"/>
      <point x="27" y="462"/>
      <point x="120" y="512"/>
      <point x="209" y="512" type="curve" smooth="yes"/>
      <point x="289" y="512"/>
      <point x="307" y="498"/>
      <point x="335" y="504" type="curve" smooth="yes"/>
      <point x="361" y="509"/>
      <point x="386" y="521"/>
      <point x="410" y="543" type="curve"/>
    </contour>
    <contour>
      <point x="377" y="320" type="line" smooth="yes"/>
      <point x="377" y="459"/>
      <point x="298" y="480"/>
      <point x="285" y="488" type="curve"/>
      <point x="263" y="493"/>
      <point x="235" y="496"/>
      <point x="208" y="495" type="curve" smooth="yes"/>
      <point x="120" y="492"/>
      <point x="47" y="441"/>
      <point x="47" y="324" type="curve" smooth="yes"/>
      <point x="47" y="185" type="line" smooth="yes"/>
      <point x="47" y="86"/>
      <point x="104" y="8"/>
      <point x="214" y="8" type="curve" smooth="yes"/>
      <point x="329" y="8"/>
      <point x="377" y="84"/>
      <point x="377" y="185" type="curve" smooth="yes"/>
    </contour>
  </outline>
</glyph>
<glyph name="tau" format="1">
  <advance width="343" height="962"/>
  <unicode hex="03C4"/>
  <outline>
    <contour>
      <point x="178" y="133" type="line" smooth="yes"/>
      <point x="178" y="79"/>
      <point x="177" y="24"/>
      <point x="252" y="4" type="curve"/>
      <point x="245" y="-13" type="line"/>
      <point x="169" y="11"/>
      <point x="158" y="59"/>
      <point x="158" y="133" type="curve" smooth="yes"/>
      <point x="158" y="481" type="line"/>
      <point x="18" y="481" type="line"/>
      <point x="18" y="500" type="line"/>
      <point x="321" y="500" type="line"/>
      <point x="321" y="481" type="line"/>
      <point x="178" y="481" type="line"/>
    </contour>
  </outline>
</glyph>
<glyph name="chi" format="1">
  <advance width="453" height="962"/>
  <unicode hex="03C7"/>
  <outline>
    <contour>
      <point x="343" y="-108" type="line" smooth="yes"/>
      <point x="374" y="-169"/>
      <point x="403" y="-196"/>
      <point x="449" y="-199" type="curve"/>
      <point x="439" y="-212" type="line"/>
      <point x="386" y="-212"/>
      <point x="360" y="-177"/>
      <point x="325" y="-108" type="curve" smooth="yes"/>
      <point x="208" y="132" type="line"/>
      <point x="38" y="-197" type="line"/>
      <point x="21" y="-190" type="line"/>
      <point x="198" y="149" type="line"/>
      <point x="21" y="500" type="line"/>
      <point x="41" y="500" type="line"/>
      <point x="207" y="167" type="line"/>
      <point x="381" y="500" type="line"/>
      <point x="401" y="500" type="line"/>
      <point x="218" y="149" type="line"/>
    </contour>
  </outline>
</glyph>
<glyph name="uni0404" format="1">
  <advance width="421" height="962"/>
  <unicode hex="0404"/>
  <outline>
    <component base="C"/>
    <contour>
      <point x="52" y="395" type="line"/>
      <point x="52" y="413" type="line"/>
      <point x="282" y="413" type="line"/>
      <point x="276" y="395" type="line"/>
    </contour>
  </outline>
</glyph>
<glyph name="uni0409" format="2">
  <advance width="848" height="962"/>
  <unicode hex="0409"/>
  <outline>
    <contour>
      <point x="656" y="411" type="line" smooth="yes"/>
      <point x="791" y="411"/>
      <point x="818" y="315"/>
      <point x="818" y="251" type="curve" smooth="yes"/>
      <point x="818" y="168" type="line" smooth="yes"/>
      <point x="818" y="49"/>
      <point x="758" y="-11"/>
      <point x="613" y="-11" type="curve" smooth="yes"/>
      <point x="575" y="-11"/>
      <point x="427" y="-1"/>
      <point x="430" y="-1" type="curve"/>
      <point x="430" y="683" type="line"/>
      <point x="392" y="683" type="line" smooth="yes"/>
      <point x="298" y="683"/>
      <point x="273" y="617"/>
      <point x="261" y="578" type="curve" smooth="yes"/>
      <point x="120" y="112" type="line" smooth="yes"/>
      <point x="100" y="47"/>
      <point x="83" y="18"/>
      <point x="28" y="-8" type="curve"/>
      <point x="17" y="5" type="line"/>
      <point x="79" y="34"/>
      <point x="90" y="77"/>
      <point x="102" y="117" type="curve" smooth="yes"/>
      <point x="245" y="590" type="line" smooth="yes"/>
      <point x="259" y="634"/>
      <point x="294" y="700"/>
      <point x="388" y="700" type="curve" smooth="yes"/>
      <point x="450" y="700" type="line"/>
      <point x="450" y="411" type="line"/>
    </contour>
    <contour>
      <point x="800" y="162" type="curve" smooth="yes"/>
      <point x="800" y="249" type="line" smooth="yes"/>
      <point x="800" y="323"/>
      <point x="761" y="392"/>
      <point x="657" y="392" type="curve" smooth="yes"/>
      <point x="450" y="392" type="line"/>
      <point x="450" y="17" type="line"/>
      <point x="453" y="16"/>
      <point x="570" y="7"/>
      <point x="613" y="7" type="curve" smooth="yes"/>
      <point x="770" y="7"/>
      <point x="800" y="89"/>
    </contour>
  </outline>
</glyph>
<glyph name="uni040A" format="2">
  <advance width="831"/>
  <unicode hex="040A"/>
  <outline>
    <contour>
      <point x="639" y="412" type="line" smooth="yes"/>
      <point x="774" y="412"/>
      <point x="801" y="315"/>
      <point x="801" y="251" type="curve" smooth="yes"/>
      <point x="801" y="168" type="line" smooth="yes"/>
      <point x="801" y="48"/>
      <point x="741" y="-12"/>
      <point x="596" y="-12" type="curve" smooth="yes"/>
      <point x="558" y="-12"/>
      <point x="414" y="0"/>
      <point x="414" y="0" type="curve"/>
      <point x="414" y="394" type="line"/>
      <point x="61" y="394" type="line"/>
      <point x="61" y="0" type="line"/>
      <point x="42" y="0" type="line"/>
      <point x="42" y="700" type="line"/>
      <point x="61" y="700" type="line"/>
      <point x="61" y="412" type="line"/>
      <point x="414" y="412" type="line"/>
      <point x="414" y="700" type="line"/>
      <point x="433" y="700" type="line"/>
      <point x="433" y="412" type="line"/>
    </contour>
    <contour>
      <point x="783" y="162" type="curve" smooth="yes"/>
      <point x="783" y="249" type="line" smooth="yes"/>
      <point x="783" y="323"/>
      <point x="744" y="394"/>
      <point x="640" y="394" type="curve" smooth="yes"/>
      <point x="433" y="394" type="line"/>
      <point x="433" y="16" type="line"/>
      <point x="433" y="16"/>
      <point x="525" y="6"/>
      <point x="596" y="6" type="curve" smooth="yes"/>
      <point x="753" y="6"/>
      <point x="783" y="89"/>
    </contour>
  </outline>
  <guideline angle="0" x="0" y="980"/>
  <guideline angle="0" x="0" y="991"/>
  <guideline angle="0" x="0" y="1057"/>
</glyph>
<glyph name="uni040B" format="1">
  <advance width="582" height="962"/>
  <unicode hex="040B"/>
  <outline>
    <component base="T" xOffset="1"/>
    <contour>
      <point x="370" y="511" type="curve" smooth="yes"/>
      <point x="460" y="511"/>
      <point x="542" y="486"/>
      <point x="542" y="346" type="curve" smooth="yes"/>
      <point x="542" y="0" type="line"/>
      <point x="523" y="0" type="line"/>
      <point x="523" y="347" type="line" smooth="yes"/>
      <point x="523" y="454"/>
      <point x="470" y="495"/>
      <point x="374" y="495" type="curve" smooth="yes"/>
      <point x="323" y="495"/>
      <point x="262" y="480"/>
      <point x="211" y="455" type="curve"/>
      <point x="211" y="473" type="line"/>
      <point x="244" y="487"/>
      <point x="309" y="511"/>
    </contour>
  </outline>
</glyph>
<glyph name="uni0414" format="2">
  <advance width="555"/>
  <unicode hex="0414"/>
  <outline>
    <contour>
      <point x="483" y="17" type="line"/>
      <point x="545" y="17" type="line"/>
      <point x="545" y="-88" type="line"/>
      <point x="529" y="-88" type="line"/>
      <point x="526" y="-1" type="line"/>
      <point x="31" y="-1" type="line"/>
      <point x="28" y="-88" type="line"/>
      <point x="12" y="-88" type="line"/>
      <point x="12" y="17" type="line"/>
      <point x="64" y="17" type="line"/>
      <point x="238" y="590" type="line" smooth="yes"/>
      <point x="252" y="634"/>
      <point x="287" y="700"/>
      <point x="381" y="700" type="curve" smooth="yes"/>
      <point x="483" y="700" type="line"/>
    </contour>
    <contour>
      <point x="465" y="17" type="line"/>
      <point x="465" y="682" type="line"/>
      <point x="385" y="682" type="line" smooth="yes"/>
      <point x="291" y="682"/>
      <point x="266" y="617"/>
      <point x="254" y="578" type="curve" smooth="yes"/>
      <point x="84" y="17" type="line"/>
    </contour>
  </outline>
</glyph>
<glyph name="uni0416" format="2">
  <advance width="680" height="962"/>
  <unicode hex="0416"/>
  <outline>
    <contour>
      <point x="634" y="0" type="line"/>
      <point x="397" y="353" type="line"/>
      <point x="346" y="353" type="line"/>
      <point x="346" y="0" type="line"/>
      <point x="328" y="0" type="line"/>
      <point x="328" y="353" type="line"/>
      <point x="279" y="353" type="line"/>
      <point x="45" y="0" type="line"/>
      <point x="20" y="0" type="line"/>
      <point x="263" y="363" type="line"/>
      <point x="38" y="700" type="line"/>
      <point x="60" y="700" type="line"/>
      <point x="280" y="373" type="line"/>
      <point x="328" y="373" type="line"/>
      <point x="328" y="700" type="line"/>
      <point x="346" y="700" type="line"/>
      <point x="346" y="373" type="line"/>
      <point x="395" y="373" type="line"/>
      <point x="615" y="700" type="line"/>
      <point x="639" y="700" type="line"/>
      <point x="414" y="363" type="line"/>
      <point x="659" y="0" type="line"/>
    </contour>
  </outline>
</glyph>
<glyph name="uni0417" format="2">
  <advance width="461"/>
  <unicode hex="0417"/>
  <outline>
    <contour>
      <point x="102" y="412" type="line"/>
      <point x="237" y="412" type="line" smooth="yes"/>
      <point x="314" y="412"/>
      <point x="382" y="458"/>
      <point x="382" y="536" type="curve" smooth="yes"/>
      <point x="382" y="639"/>
      <point x="305" y="690"/>
      <point x="210" y="690" type="curve" smooth="yes"/>
      <point x="168" y="690"/>
      <point x="120" y="682"/>
      <point x="76" y="660" type="curve"/>
      <point x="68" y="677" type="line"/>
      <point x="105" y="697"/>
      <point x="158" y="710"/>
      <point x="210" y="710" type="curve" smooth="yes"/>
      <point x="349" y="710"/>
      <point x="403" y="624"/>
      <point x="403" y="537" type="curve" smooth="yes"/>
      <point x="403" y="491"/>
      <point x="379" y="429"/>
      <point x="296" y="403" type="curve"/>
      <point x="380" y="376"/>
      <point x="431" y="310"/>
      <point x="431" y="213" type="curve" smooth="yes"/>
      <point x="431" y="107"/>
      <point x="369" y="-12"/>
      <point x="180" y="-12" type="curve" smooth="yes"/>
      <point x="101" y="-12"/>
      <point x="17" y="22"/>
      <point x="17" y="22" type="curve"/>
      <point x="22" y="42" type="line"/>
      <point x="22" y="42"/>
      <point x="96" y="7"/>
      <point x="186" y="7" type="curve" smooth="yes"/>
      <point x="325" y="7"/>
      <point x="413" y="89"/>
      <point x="413" y="208" type="curve" smooth="yes"/>
      <point x="413" y="316"/>
      <point x="349" y="394"/>
      <point x="214" y="394" type="curve" smooth="yes"/>
      <point x="108" y="394" type="line"/>
    </contour>
  </outline>
</glyph>
<glyph name="uni0423" format="2">
  <advance width="484" height="962"/>
  <unicode hex="0423"/>
  <outline>
    <contour>
      <point x="456" y="700" type="line"/>
      <point x="475" y="700" type="line"/>
      <point x="186" y="111" type="line" smooth="yes"/>
      <point x="154" y="46"/>
      <point x="131" y="17"/>
      <point x="71" y="-9" type="curve"/>
      <point x="63" y="4" type="line"/>
      <point x="130" y="34"/>
      <point x="149" y="76"/>
      <point x="169" y="116" type="curve" smooth="yes"/>
      <point x="237" y="255" type="line"/>
      <point x="7" y="700" type="line"/>
      <point x="26" y="700" type="line"/>
      <point x="247" y="274" type="line"/>
    </contour>
  </outline>
</glyph>
<glyph name="uni0428" format="1">
  <advance width="641" height="962"/>
  <unicode hex="0428"/>
  <outline>
    <contour>
      <point x="581" y="700" type="line"/>
      <point x="600" y="700" type="line"/>
      <point x="600" y="0" type="line"/>
      <point x="44" y="0" type="line"/>
      <point x="44" y="700" type="line"/>
      <point x="63" y="700" type="line"/>
      <point x="63" y="18" type="line"/>
      <point x="312" y="18" type="line"/>
      <point x="312" y="700" type="line"/>
      <point x="331" y="700" type="line"/>
      <point x="331" y="18" type="line"/>
      <point x="581" y="18" type="line"/>
    </contour>
  </outline>
</glyph>
<glyph name="uni042C" format="2">
  <advance width="455"/>
  <unicode hex="042C"/>
  <outline>
    <contour>
      <point x="266" y="411" type="line" smooth="yes"/>
      <point x="401" y="411"/>
      <point x="428" y="315"/>
      <point x="428" y="251" type="curve" smooth="yes"/>
      <point x="428" y="168" type="line" smooth="yes"/>
      <point x="428" y="49"/>
      <point x="368" y="-11"/>
      <point x="223" y="-11" type="curve" smooth="yes"/>
      <point x="185" y="-11"/>
      <point x="42" y="-1"/>
      <point x="42" y="-1" type="curve"/>
      <point x="42" y="700" type="line"/>
      <point x="60" y="700" type="line"/>
      <point x="60" y="411" type="line"/>
    </contour>
    <contour>
      <point x="410" y="162" type="curve" smooth="yes"/>
      <point x="410" y="249" type="line" smooth="yes"/>
      <point x="410" y="323"/>
      <point x="371" y="392"/>
      <point x="267" y="392" type="curve" smooth="yes"/>
      <point x="60" y="392" type="line"/>
      <point x="60" y="17" type="line"/>
      <point x="63" y="17"/>
      <point x="180" y="7"/>
      <point x="223" y="7" type="curve" smooth="yes"/>
      <point x="380" y="7"/>
      <point x="410" y="89"/>
    </contour>
  </outline>
</glyph>
<glyph name="uni042D" format="1">
  <advance width="431" height="962"/>
  <unicode hex="042D"/>
  <outline>
    <contour>
      <point x="67" y="660" type="curve"/>
      <point x="59" y="677" type="line"/>
      <point x="105" y="699"/>
      <point x="147" y="710"/>
      <point x="201" y="710" type="curve" smooth="yes"/>
      <point x="301" y="710"/>
      <point x="396" y="660"/>
      <point x="396" y="514" type="curve" smooth="yes"/>
      <point x="396" y="184" type="line" smooth="yes"/>
      <point x="396" y="51"/>
      <point x="322" y="-10"/>
      <point x="196" y="-10" type="curve" smooth="yes"/>
      <point x="144" y="-10"/>
      <point x="90" y="1"/>
      <point x="34" y="23" type="curve"/>
      <point x="40" y="41" type="line"/>
      <point x="96" y="18"/>
      <point x="152" y="8"/>
      <point x="192" y="8" type="curve" smooth="yes"/>
      <point x="298" y="8"/>
      <point x="377" y="55"/>
      <point x="377" y="186" type="curve" smooth="yes"/>
      <point x="377" y="514" type="line" smooth="yes"/>
      <point x="377" y="632"/>
      <point x="314" y="691"/>
      <point x="198" y="691" type="curve" smooth="yes"/>
      <point x="156" y="691"/>
      <point x="111" y="683"/>
    </contour>
    <contour>
      <point x="379" y="413" type="line"/>
      <point x="379" y="395" type="line"/>
      <point x="155" y="395" type="line"/>
      <point x="149" y="413" type="line"/>
    </contour>
  </outline>
</glyph>
<glyph name="uni042E" format="2">
  <advance width="673" height="962"/>
  <unicode hex="042E"/>
  <outline>
    <component base="O" xOffset="185"/>
    <component base="I" xOffset="4"/>
    <contour>
      <point x="227" y="361" type="line"/>
      <point x="227" y="343" type="line"/>
      <point x="115" y="343" type="line"/>
      <point x="115" y="361" type="line"/>
    </contour>
  </outline>
</glyph>
<glyph name="uni0437" format="1">
  <advance width="400" height="962"/>
  <unicode hex="0437"/>
  <outline>
    <contour>
      <point x="96" y="477" type="curve"/>
      <point x="96" y="497" type="line"/>
      <point x="131" y="506"/>
      <point x="166" y="511"/>
      <point x="199" y="511" type="curve" smooth="yes"/>
      <point x="301" y="511"/>
      <point x="351" y="449"/>
      <point x="351" y="386" type="curve" smooth="yes"/>
      <point x="351" y="353"/>
      <point x="337" y="303"/>
      <point x="274" y="289" type="curve"/>
      <point x="335" y="270"/>
      <point x="371" y="222"/>
      <point x="371" y="152" type="curve" smooth="yes"/>
      <point x="371" y="75"/>
      <point x="326" y="-11"/>
      <point x="189" y="-11" type="curve" smooth="yes"/>
      <point x="131" y="-11"/>
      <point x="66" y="9"/>
      <point x="26" y="23" type="curve"/>
      <point x="33" y="43" type="line"/>
      <point x="32" y="45"/>
      <point x="103" y="9"/>
      <point x="192" y="9" type="curve" smooth="yes"/>
      <point x="291" y="9"/>
      <point x="352" y="67"/>
      <point x="352" y="149" type="curve" smooth="yes"/>
      <point x="352" y="226"/>
      <point x="305" y="283"/>
      <point x="209" y="283" type="curve" smooth="yes"/>
      <point x="103" y="283" type="line"/>
      <point x="96" y="301" type="line"/>
      <point x="244" y="301" type="line" smooth="yes"/>
      <point x="298" y="301"/>
      <point x="332" y="336"/>
      <point x="332" y="386" type="curve" smooth="yes"/>
      <point x="332" y="463"/>
      <point x="264" y="494"/>
      <point x="197" y="494" type="curve" smooth="yes"/>
      <point x="174" y="494"/>
      <point x="120" y="487"/>
    </contour>
  </outline>
</glyph>
<glyph name="uni043B" format="1">
  <advance width="480" height="962"/>
  <unicode hex="043B"/>
  <outline>
    <contour>
      <point x="312" y="500" type="curve" smooth="yes"/>
      <point x="441" y="500" type="line"/>
      <point x="441" y="0" type="line"/>
      <point x="422" y="0" type="line"/>
      <point x="422" y="483" type="line"/>
      <point x="312" y="483" type="line" smooth="yes"/>
      <point x="218" y="483"/>
      <point x="196" y="418"/>
      <point x="184" y="379" type="curve" smooth="yes"/>
      <point x="104" y="113" type="line" smooth="yes"/>
      <point x="84" y="48"/>
      <point x="67" y="19"/>
      <point x="12" y="-7" type="curve"/>
      <point x="1" y="6" type="line"/>
      <point x="62" y="35"/>
      <point x="74" y="78"/>
      <point x="86" y="118" type="curve" smooth="yes"/>
      <point x="168" y="391" type="line" smooth="yes"/>
      <point x="181" y="435"/>
      <point x="218" y="500"/>
    </contour>
  </outline>
</glyph>
<glyph name="uni043C" format="2">
  <advance width="589"/>
  <unicode hex="043C"/>
  <outline>
    <contour>
      <point x="531" y="500" type="line"/>
      <point x="550" y="500" type="line"/>
      <point x="550" y="0" type="line"/>
      <point x="531" y="0" type="line"/>
      <point x="531" y="462" type="line"/>
      <point x="303" y="0" type="line"/>
      <point x="284" y="0" type="line"/>
      <point x="55" y="462" type="line"/>
      <point x="55" y="0" type="line"/>
      <point x="36" y="0" type="line"/>
      <point x="36" y="500" type="line"/>
      <point x="55" y="500" type="line"/>
      <point x="293" y="19" type="line"/>
    </contour>
  </outline>
</glyph>
<glyph name="uni0446" format="2">
  <advance width="444" height="962"/>
  <unicode hex="0446"/>
  <outline>
    <contour>
      <point x="407" y="500" type="line"/>
      <point x="407" y="18" type="line"/>
      <point x="426" y="18" type="line"/>
      <point x="426" y="-87" type="line"/>
      <point x="410" y="-87" type="line"/>
      <point x="406" y="0" type="line"/>
      <point x="37" y="0" type="line"/>
      <point x="37" y="500" type="line"/>
      <point x="56" y="500" type="line"/>
      <point x="56" y="18" type="line"/>
      <point x="388" y="18" type="line"/>
      <point x="388" y="500" type="line"/>
    </contour>
  </outline>
</glyph>
<glyph name="uni0448" format="2">
  <advance width="615" height="962"/>
  <unicode hex="0448"/>
  <outline>
    <contour>
      <point x="551" y="500" type="line"/>
      <point x="570" y="500" type="line"/>
      <point x="570" y="0" type="line"/>
      <point x="44" y="0" type="line"/>
      <point x="44" y="500" type="line"/>
      <point x="63" y="500" type="line"/>
      <point x="63" y="18" type="line"/>
      <point x="297" y="18" type="line"/>
      <point x="297" y="500" type="line"/>
      <point x="316" y="500" type="line"/>
      <point x="316" y="18" type="line"/>
      <point x="551" y="18" type="line"/>
    </contour>
  </outline>
</glyph>
<glyph name="uni044D" format="1">
  <advance width="378" height="962"/>
  <unicode hex="044D"/>
  <outline>
    <contour>
      <point x="33" y="459" type="curve"/>
      <point x="26" y="478" type="line"/>
      <point x="69" y="499"/>
      <point x="117" y="510"/>
      <point x="163" y="510" type="curve" smooth="yes"/>
      <point x="285" y="510"/>
      <point x="346" y="430"/>
      <point x="346" y="314" type="curve" smooth="yes"/>
      <point x="346" y="174" type="line" smooth="yes"/>
      <point x="346" y="43"/>
      <point x="268" y="-9"/>
      <point x="151" y="-11" type="curve" smooth="yes"/>
      <point x="108" y="-12"/>
      <point x="63" y="-6"/>
      <point x="24" y="5" type="curve"/>
      <point x="28" y="25" type="line"/>
      <point x="27" y="26"/>
      <point x="84" y="9"/>
      <point x="149" y="9" type="curve" smooth="yes"/>
      <point x="255" y="9"/>
      <point x="327" y="54"/>
      <point x="327" y="176" type="curve" smooth="yes"/>
      <point x="327" y="314" type="line" smooth="yes"/>
      <point x="327" y="423"/>
      <point x="269" y="491"/>
      <point x="163" y="491" type="curve" smooth="yes"/>
      <point x="121" y="491"/>
      <point x="76" y="481"/>
    </contour>
    <contour>
      <point x="77" y="263" type="line"/>
      <point x="70" y="281" type="line"/>
      <point x="337" y="281" type="line"/>
      <point x="337" y="263" type="line"/>
    </contour>
  </outline>
</glyph>
<glyph name="uni044E" format="2">
  <advance width="581"/>
  <unicode hex="044E"/>
  <outline>
    <component base="o" xOffset="152" yOffset="-1"/>
    <component base="dotlessi"/>
    <contour>
      <point x="48" y="259" type="line"/>
      <point x="192" y="259" type="line"/>
      <point x="192" y="241" type="line"/>
      <point x="48" y="241" type="line"/>
    </contour>
  </outline>
</glyph>
<glyph name="uni044F" format="2">
  <advance width="453" height="962"/>
  <unicode hex="044F"/>
  <outline>
    <contour>
      <point x="209" y="510" type="curve" smooth="yes"/>
      <point x="312" y="510"/>
      <point x="401" y="500"/>
      <point x="410" y="499" type="curve"/>
      <point x="410" y="0" type="line"/>
      <point x="392" y="0" type="line"/>
      <point x="392" y="197" type="line"/>
      <point x="205" y="197" type="line" smooth="yes"/>
      <point x="194" y="197"/>
      <point x="163" y="197"/>
      <point x="153" y="199" type="curve"/>
      <point x="57" y="0" type="line"/>
      <point x="37" y="0" type="line"/>
      <point x="135" y="203" type="line"/>
      <point x="66" y="220"/>
      <point x="27" y="275"/>
      <point x="27" y="347" type="curve" smooth="yes"/>
      <point x="27" y="424"/>
      <point x="72" y="510"/>
    </contour>
    <contour>
      <point x="189" y="215" type="curve" smooth="yes"/>
      <point x="392" y="215" type="line"/>
      <point x="392" y="480" type="line"/>
      <point x="366" y="482"/>
      <point x="297" y="490"/>
      <point x="206" y="490" type="curve" smooth="yes"/>
      <point x="107" y="490"/>
      <point x="46" y="432"/>
      <point x="46" y="350" type="curve" smooth="yes"/>
      <point x="46" y="273"/>
      <point x="93" y="215"/>
    </contour>
  </outline>
</glyph>
<glyph name="uni0452" format="2">
  <advance width="469" height="962"/>
  <unicode hex="0452"/>
  <outline>
    <contour>
      <point x="0" y="618" type="line"/>
      <point x="238" y="618" type="line"/>
      <point x="238" y="598" type="line"/>
      <point x="0" y="598" type="line"/>
    </contour>
    <contour>
      <point x="252" y="511" type="curve" smooth="yes"/>
      <point x="337" y="512"/>
      <point x="437" y="494"/>
      <point x="437" y="346" type="curve" smooth="yes"/>
      <point x="437" y="-68" type="line" smooth="yes"/>
      <point x="437" y="-149"/>
      <point x="405" y="-185"/>
      <point x="330" y="-214" type="curve"/>
      <point x="324" y="-197" type="line"/>
      <point x="373" y="-178"/>
      <point x="419" y="-152"/>
      <point x="419" y="-70" type="curve" smooth="yes"/>
      <point x="419" y="347" type="line" smooth="yes"/>
      <point x="419" y="455"/>
      <point x="361" y="496"/>
      <point x="264" y="496" type="curve" smooth="yes"/>
      <point x="205" y="496"/>
      <point x="135" y="480"/>
      <point x="85" y="455" type="curve"/>
      <point x="85" y="0" type="line"/>
      <point x="65" y="0" type="line"/>
      <point x="65" y="700" type="line"/>
      <point x="85" y="700" type="line"/>
      <point x="85" y="473" type="line"/>
      <point x="133" y="493"/>
      <point x="193" y="510"/>
    </contour>
  </outline>
</glyph>
<glyph name="uni0459" format="1">
  <advance width="796" height="962"/>
  <unicode hex="0459"/>
  <outline>
    <contour>
      <point x="606" y="303" type="line" smooth="yes"/>
      <point x="706" y="303"/>
      <point x="764" y="240"/>
      <point x="764" y="153" type="curve" smooth="yes"/>
      <point x="764" y="76"/>
      <point x="719" y="-10"/>
      <point x="582" y="-10" type="curve" smooth="yes"/>
      <point x="502" y="-10"/>
      <point x="433" y="0"/>
      <point x="423" y="1" type="curve"/>
      <point x="423" y="483" type="line"/>
      <point x="309" y="483" type="line" smooth="yes"/>
      <point x="215" y="483"/>
      <point x="196" y="417"/>
      <point x="184" y="378" type="curve" smooth="yes"/>
      <point x="104" y="112" type="line" smooth="yes"/>
      <point x="84" y="47"/>
      <point x="67" y="18"/>
      <point x="12" y="-8" type="curve"/>
      <point x="1" y="5" type="line"/>
      <point x="63" y="34"/>
      <point x="74" y="77"/>
      <point x="86" y="117" type="curve" smooth="yes"/>
      <point x="168" y="390" type="line" smooth="yes"/>
      <point x="181" y="434"/>
      <point x="215" y="500"/>
      <point x="309" y="500" type="curve" smooth="yes"/>
      <point x="442" y="500" type="line"/>
      <point x="442" y="303" type="line"/>
    </contour>
    <contour>
      <point x="585" y="10" type="curve" smooth="yes"/>
      <point x="684" y="10"/>
      <point x="745" y="68"/>
      <point x="745" y="150" type="curve" smooth="yes"/>
      <point x="745" y="227"/>
      <point x="698" y="285"/>
      <point x="602" y="285" type="curve" smooth="yes"/>
      <point x="442" y="285" type="line"/>
      <point x="442" y="20" type="line"/>
      <point x="469" y="17"/>
      <point x="494" y="10"/>
    </contour>
  </outline>
</glyph>
<glyph name="uni045A" format="2">
  <advance width="760"/>
  <unicode hex="045A"/>
  <outline>
    <contour>
      <point x="571" y="303" type="line" smooth="yes"/>
      <point x="671" y="303"/>
      <point x="729" y="241"/>
      <point x="729" y="153" type="curve" smooth="yes"/>
      <point x="729" y="76"/>
      <point x="684" y="-9"/>
      <point x="547" y="-9" type="curve" smooth="yes"/>
      <point x="453" y="-9"/>
      <point x="344" y="3"/>
      <point x="344" y="3" type="curve"/>
      <point x="344" y="285" type="line"/>
      <point x="51" y="285" type="line"/>
      <point x="51" y="-1" type="line"/>
      <point x="32" y="-1" type="line"/>
      <point x="32" y="500" type="line"/>
      <point x="51" y="500" type="line"/>
      <point x="51" y="303" type="line"/>
      <point x="344" y="303" type="line"/>
      <point x="344" y="500" type="line"/>
      <point x="363" y="500" type="line"/>
      <point x="363" y="303" type="line"/>
    </contour>
    <contour>
      <point x="550" y="10" type="curve" smooth="yes"/>
      <point x="649" y="10"/>
      <point x="710" y="68"/>
      <point x="710" y="150" type="curve" smooth="yes"/>
      <point x="710" y="227"/>
      <point x="663" y="285"/>
      <point x="567" y="285" type="curve" smooth="yes"/>
      <point x="363" y="285" type="line"/>
      <point x="363" y="20" type="line"/>
      <point x="390" y="17"/>
      <point x="459" y="10"/>
    </contour>
  </outline>
</glyph>
<glyph name="uni045F" format="1">
  <advance width="444" height="962"/>
  <unicode hex="045F"/>
  <outline>
    <contour>
      <point x="404" y="500" type="line"/>
      <point x="404" y="0" type="line"/>
      <point x="229" y="0" type="line"/>
      <point x="228" y="-97" type="line"/>
      <point x="211" y="-97" type="line"/>
      <point x="210" y="0" type="line"/>
      <point x="35" y="0" type="line"/>
      <point x="35" y="500" type="line"/>
      <point x="54" y="500" type="line"/>
      <point x="54" y="18" type="line"/>
      <point x="385" y="18" type="line"/>
      <point x="385" y="500" type="line"/>
    </contour>
  </outline>
</glyph>
<glyph name="uni0463" format="2">
  <advance width="480"/>
  <unicode hex="0463"/>
  <outline>
    <contour>
      <point x="291" y="303" type="line" smooth="yes"/>
      <point x="383" y="303"/>
      <point x="449" y="242"/>
      <point x="449" y="154" type="curve" smooth="yes"/>
      <point x="449" y="77"/>
      <point x="404" y="-9"/>
      <point x="267" y="-9" type="curve" smooth="yes"/>
      <point x="187" y="-9"/>
      <point x="73" y="1"/>
      <point x="64" y="2" type="curve"/>
      <point x="64" y="700" type="line"/>
      <point x="83" y="700" type="line"/>
      <point x="83" y="303" type="line"/>
    </contour>
    <contour>
      <point x="270" y="11" type="curve" smooth="yes"/>
      <point x="369" y="11"/>
      <point x="430" y="69"/>
      <point x="430" y="151" type="curve" smooth="yes"/>
      <point x="430" y="228"/>
      <point x="383" y="285"/>
      <point x="287" y="285" type="curve" smooth="yes"/>
      <point x="83" y="285" type="line"/>
      <point x="83" y="21" type="line"/>
      <point x="110" y="19"/>
      <point x="179" y="11"/>
    </contour>
    <contour>
      <point x="-1" y="501" type="line"/>
      <point x="235" y="501" type="line"/>
      <point x="235" y="483" type="line"/>
      <point x="-1" y="483" type="line"/>
    </contour>
  </outline>
</glyph>
<glyph name="uni0474" format="1">
  <advance width="548" height="962"/>
  <unicode hex="0474"/>
  <outline>
    <contour>
      <point x="538" y="707" type="curve"/>
      <point x="549" y="693" type="line"/>
      <point x="491" y="667"/>
      <point x="478" y="623"/>
      <point x="465" y="584" type="curve" smooth="yes"/>
      <point x="275" y="-1" type="line"/>
      <point x="253" y="-1" type="line"/>
      <point x="23" y="700" type="line"/>
      <point x="42" y="700" type="line"/>
      <point x="263" y="25" type="line"/>
      <point x="446" y="586" type="line" smooth="yes"/>
      <point x="468" y="652"/>
      <point x="483" y="680"/>
    </contour>
  </outline>
</glyph>
<glyph name="uni0475" format="2">
  <advance width="450"/>
  <unicode hex="0475"/>
  <outline>
    <contour>
      <point x="437" y="507" type="curve"/>
      <point x="447" y="493" type="line"/>
      <point x="388" y="467"/>
      <point x="373" y="423"/>
      <point x="359" y="384" type="curve" smooth="yes"/>
      <point x="217" y="0" type="line"/>
      <point x="204" y="0" type="line"/>
      <point x="18" y="500" type="line"/>
      <point x="37" y="500" type="line"/>
      <point x="210" y="36" type="line"/>
      <point x="340" y="386" type="line" smooth="yes"/>
      <point x="365" y="452"/>
      <point x="381" y="480"/>
    </contour>
  </outline>
</glyph>
<glyph name="uni0490" format="2">
  <advance width="379" height="962"/>
  <unicode hex="0490"/>
  <outline>
    <component base="Gamma"/>
    <contour>
      <point x="359" y="771" type="line"/>
      <point x="375" y="771" type="line"/>
      <point x="375" y="690" type="line"/>
      <point x="356" y="690" type="line"/>
      <point x="356" y="700" type="line"/>
    </contour>
  </outline>
</glyph>
<glyph name="uni0494" format="2">
  <advance width="446"/>
  <unicode hex="0494"/>
  <outline>
    <component base="Gamma"/>
    <contour>
      <point x="239" y="510" type="curve" smooth="yes"/>
      <point x="328" y="510"/>
      <point x="412" y="485"/>
      <point x="412" y="345" type="curve" smooth="yes"/>
      <point x="412" y="131" type="line" smooth="yes"/>
      <point x="412" y="53"/>
      <point x="380" y="8"/>
      <point x="307" y="-14" type="curve"/>
      <point x="300" y="3" type="line"/>
      <point x="366" y="26"/>
      <point x="393" y="58"/>
      <point x="393" y="131" type="curve" smooth="yes"/>
      <point x="393" y="346" type="line" smooth="yes"/>
      <point x="393" y="453"/>
      <point x="339" y="494"/>
      <point x="243" y="494" type="curve" smooth="yes"/>
      <point x="192" y="494"/>
      <point x="110" y="479"/>
      <point x="59" y="454" type="curve"/>
      <point x="59" y="472" type="line"/>
      <point x="92" y="486"/>
      <point x="168" y="510"/>
    </contour>
  </outline>
</glyph>
<glyph name="uni049C" format="1">
  <advance width="535" height="962"/>
  <unicode hex="049C"/>
  <outline>
    <contour>
      <point x="513" y="0" type="line"/>
      <point x="492" y="0" type="line"/>
      <point x="232" y="393" type="line"/>
      <point x="162" y="393" type="line"/>
      <point x="162" y="322" type="line"/>
      <point x="143" y="322" type="line"/>
      <point x="143" y="393" type="line"/>
      <point x="60" y="393" type="line"/>
      <point x="60" y="0" type="line"/>
      <point x="41" y="0" type="line"/>
      <point x="41" y="700" type="line"/>
      <point x="60" y="700" type="line"/>
      <point x="60" y="413" type="line"/>
      <point x="143" y="413" type="line"/>
      <point x="143" y="484" type="line"/>
      <point x="162" y="484" type="line"/>
      <point x="162" y="413" type="line"/>
      <point x="224" y="413" type="line"/>
      <point x="439" y="700" type="line"/>
      <point x="461" y="700" type="line"/>
      <point x="245" y="408" type="line"/>
    </contour>
  </outline>
</glyph>
<glyph name="uni049D" format="2">
  <advance width="480"/>
  <unicode hex="049D"/>
  <outline>
    <contour>
      <point x="466" y="18" type="curve"/>
      <point x="466" y="-1" type="line"/>
      <point x="418" y="-1"/>
      <point x="376" y="51"/>
      <point x="350" y="86" type="curve" smooth="yes"/>
      <point x="206" y="282" type="line"/>
      <point x="145" y="282" type="line"/>
      <point x="145" y="211" type="line"/>
      <point x="126" y="211" type="line"/>
      <point x="126" y="282" type="line"/>
      <point x="56" y="282" type="line"/>
      <point x="56" y="0" type="line"/>
      <point x="38" y="0" type="line"/>
      <point x="38" y="511" type="line"/>
      <point x="56" y="507" type="line"/>
      <point x="56" y="302" type="line"/>
      <point x="126" y="302" type="line"/>
      <point x="126" y="373" type="line"/>
      <point x="145" y="373" type="line"/>
      <point x="145" y="302" type="line"/>
      <point x="206" y="302" type="line"/>
      <point x="388" y="500" type="line"/>
      <point x="414" y="500" type="line"/>
      <point x="223" y="292" type="line"/>
      <point x="351" y="113" type="line" smooth="yes"/>
      <point x="396" y="50"/>
      <point x="436" y="18"/>
    </contour>
  </outline>
</glyph>
<glyph name="uni04A0" format="2">
  <advance width="507" height="962"/>
  <unicode hex="04A0"/>
  <outline>
    <component base="K" xOffset="47"/>
    <contour>
      <point x="1" y="700" type="line"/>
      <point x="98" y="700" type="line"/>
      <point x="98" y="680" type="line"/>
      <point x="88" y="680" type="line"/>
      <point x="1" y="683" type="line"/>
    </contour>
  </outline>
</glyph>
<glyph name="uni04A1" format="2">
  <advance width="477"/>
  <unicode hex="04A1"/>
  <outline>
    <contour>
      <point x="340" y="113" type="line" smooth="yes"/>
      <point x="385" y="50"/>
      <point x="425" y="19"/>
      <point x="455" y="19" type="curve"/>
      <point x="456" y="19" type="line"/>
      <point x="456" y="0" type="line"/>
      <point x="455" y="0" type="line"/>
      <point x="407" y="0"/>
      <point x="365" y="50"/>
      <point x="339" y="86" type="curve" smooth="yes"/>
      <point x="200" y="278" type="line"/>
      <point x="104" y="179" type="line"/>
      <point x="104" y="0" type="line"/>
      <point x="86" y="0" type="line"/>
      <point x="86" y="480.034" type="line"/>
      <point x="0" y="483" type="line"/>
      <point x="0" y="500" type="line"/>
      <point x="104" y="500" type="line"/>
      <point x="104" y="203" type="line"/>
      <point x="380" y="500" type="line"/>
      <point x="403" y="500" type="line"/>
      <point x="212" y="292" type="line"/>
    </contour>
  </outline>
</glyph>
<glyph name="uni04B0" format="2">
  <advance width="483" height="962"/>
  <unicode hex="04B0"/>
  <outline>
    <component base="uni04AE"/>
    <contour>
      <point x="102" y="218" type="line"/>
      <point x="381" y="218" type="line"/>
      <point x="381" y="198" type="line"/>
      <point x="102" y="198" type="line"/>
    </contour>
  </outline>
</glyph>
<glyph name="uni04B6" format="2">
  <advance width="508" height="962"/>
  <unicode hex="04B6"/>
  <outline>
    <component base="uni0427"/>
    <contour>
      <point x="457" y="18" type="line"/>
      <point x="488" y="18" type="line"/>
      <point x="488" y="-87" type="line"/>
      <point x="472" y="-87" type="line"/>
      <point x="469" y="0" type="line"/>
      <point x="457" y="0" type="line"/>
    </contour>
  </outline>
</glyph>
<glyph name="uni04B9" format="1">
  <advance width="439" height="962"/>
  <unicode hex="04B9"/>
  <outline>
    <contour>
      <point x="385" y="0" type="line"/>
      <point x="385" y="217" type="line"/>
      <point x="361" y="150"/>
      <point x="284" y="108"/>
      <point x="206" y="108" type="curve" smooth="yes"/>
      <point x="132" y="108"/>
      <point x="32" y="134"/>
      <point x="32" y="275" type="curve" smooth="yes"/>
      <point x="32" y="500" type="line"/>
      <point x="50" y="500" type="line"/>
      <point x="50" y="272" type="line" smooth="yes"/>
      <point x="50" y="167"/>
      <point x="112" y="125"/>
      <point x="206" y="125" type="curve" smooth="yes"/>
      <point x="301" y="125"/>
      <point x="384" y="185"/>
      <point x="384" y="287" type="curve" smooth="yes"/>
      <point x="384" y="418" type="line" smooth="yes"/>
      <point x="384" y="466"/>
      <point x="392" y="488"/>
      <point x="416" y="511" type="curve"/>
      <point x="429" y="500" type="line"/>
      <point x="408" y="482"/>
      <point x="403" y="462"/>
      <point x="403" y="417" type="curve" smooth="yes"/>
      <point x="403" y="0" type="line"/>
    </contour>
    <contour>
      <point x="201" y="202" type="line"/>
      <point x="220" y="202" type="line"/>
      <point x="220" y="36" type="line"/>
      <point x="201" y="36" type="line"/>
    </contour>
  </outline>
</glyph>
<glyph name="uni04BA" format="1">
  <advance width="520" height="962"/>
  <unicode hex="04BA"/>
  <outline>
    <contour>
      <point x="62" y="700" type="line"/>
      <point x="62" y="348" type="line"/>
      <point x="79" y="384"/>
      <point x="134" y="454"/>
      <point x="262" y="454" type="curve" smooth="yes"/>
      <point x="404" y="454"/>
      <point x="487" y="381"/>
      <point x="487" y="245" type="curve" smooth="yes"/>
      <point x="487" y="-1" type="line"/>
      <point x="468" y="-1" type="line"/>
      <point x="468" y="240" type="line" smooth="yes"/>
      <point x="468" y="374"/>
      <point x="393" y="435"/>
      <point x="257" y="435" type="curve" smooth="yes"/>
      <point x="154" y="435"/>
      <point x="62" y="379"/>
      <point x="62" y="268" type="curve" smooth="yes"/>
      <point x="62" y="-1" type="line"/>
      <point x="42" y="-1" type="line"/>
      <point x="42" y="700" type="line"/>
    </contour>
  </outline>
</glyph>
<glyph name="quotedblright" format="1">
  <advance width="283" height="962"/>
  <unicode hex="201D"/>
  <outline>
    <contour>
      <point x="26" y="593" type="line"/>
      <point x="45" y="611"/>
      <point x="50" y="634"/>
      <point x="51" y="648" type="curve"/>
      <point x="45" y="651"/>
      <point x="40" y="655"/>
      <point x="40" y="663" type="curve" smooth="yes"/>
      <point x="40" y="674"/>
      <point x="48" y="681"/>
      <point x="56" y="681" type="curve" smooth="yes"/>
      <point x="67" y="681"/>
      <point x="73" y="674"/>
      <point x="73" y="663" type="curve"/>
      <point x="74" y="609"/>
      <point x="34" y="587"/>
      <point x="34" y="587" type="curve"/>
    </contour>
    <contour>
      <point x="206" y="593" type="line"/>
      <point x="226" y="611"/>
      <point x="229" y="634"/>
      <point x="231" y="648" type="curve"/>
      <point x="225" y="651"/>
      <point x="220" y="655"/>
      <point x="220" y="663" type="curve" smooth="yes"/>
      <point x="220" y="674"/>
      <point x="227" y="681"/>
      <point x="237" y="681" type="curve" smooth="yes"/>
      <point x="247" y="681"/>
      <point x="253" y="674"/>
      <point x="253" y="663" type="curve"/>
      <point x="254" y="609"/>
      <point x="213" y="587"/>
      <point x="215" y="587" type="curve"/>
    </contour>
  </outline>
</glyph>
<glyph name="guilsinglright" format="2">
  <advance width="263" height="962"/>
  <unicode hex="203A"/>
  <outline>
    <contour>
      <point x="205" y="267" type="line"/>
      <point x="31" y="441" type="line"/>
      <point x="47" y="455" type="line"/>
      <point x="234" y="267" type="line"/>
      <point x="47" y="79" type="line"/>
      <point x="32" y="97" type="line"/>
    </contour>
  </outline>
</glyph>
<glyph name="Euro" format="1">
  <advance width="421" height="962"/>
  <unicode hex="20AC"/>
  <outline>
    <component base="C"/>
    <contour>
      <point x="12" y="394" type="line"/>
      <point x="12" y="412" type="line"/>
      <point x="352" y="412" type="line"/>
      <point x="352" y="394" type="line"/>
    </contour>
    <contour>
      <point x="12" y="289" type="line"/>
      <point x="12" y="308" type="line"/>
      <point x="352" y="308" type="line"/>
      <point x="352" y="289" type="line"/>
    </contour>
  </outline>
</glyph>
<glyph name="uni20B8" format="2">
  <advance width="409"/>
  <unicode hex="20B8"/>
  <outline>
    <contour>
      <point x="212" y="616" type="line"/>
      <point x="212" y="0" type="line"/>
      <point x="194" y="0" type="line"/>
      <point x="194" y="616" type="line"/>
      <point x="3" y="616" type="line"/>
      <point x="3" y="636" type="line"/>
      <point x="406" y="636" type="line"/>
      <point x="406" y="616" type="line"/>
    </contour>
    <contour>
      <point x="3" y="680" type="line"/>
      <point x="3" y="700" type="line"/>
      <point x="406" y="700" type="line"/>
      <point x="406" y="680" type="line"/>
    </contour>
  </outline>
</glyph>
<glyph name="Y_upper_alt" format="1">
  <advance width="484" height="962"/>
  <unicode hex="9997"/>
  <outline>
    <contour>
      <point x="249" y="342" type="line"/>
      <point x="249" y="0" type="line"/>
      <point x="231" y="0" type="line"/>
      <point x="231" y="342" type="line"/>
      <point x="5" y="700" type="line"/>
      <point x="28" y="700" type="line"/>
      <point x="240" y="362" type="line"/>
      <point x="454" y="700" type="line"/>
      <point x="477" y="700" type="line"/>
    </contour>
  </outline>
</glyph>
<glyph name="fl" format="2">
  <advance width="348"/>
  <unicode hex="FB02"/>
  <outline>
    <contour>
      <point x="289" y="648" type="line"/>
      <point x="259" y="675"/>
      <point x="226" y="687"/>
      <point x="192" y="688" type="curve" smooth="yes"/>
      <point x="122" y="690"/>
      <point x="59" y="643"/>
      <point x="59" y="565" type="curve" smooth="yes"/>
      <point x="59" y="500" type="line"/>
      <point x="210" y="500" type="line"/>
      <point x="203" y="484" type="line"/>
      <point x="59" y="484" type="line"/>
      <point x="59" y="0" type="line"/>
      <point x="39" y="0" type="line"/>
      <point x="39" y="562" type="line" smooth="yes"/>
      <point x="39" y="673"/>
      <point x="131" y="706"/>
      <point x="190" y="706" type="curve" smooth="yes"/>
      <point x="232" y="706"/>
      <point x="268" y="689"/>
      <point x="306" y="658" type="curve"/>
      <point x="306" y="0" type="line"/>
      <point x="289" y="0" type="line"/>
    </contour>
  </outline>
</glyph>
<glyph name="ffl" format="1">
  <advance width="578" height="962"/>
  <unicode hex="FB04"/>
  <outline>
    <contour>
      <point x="519" y="648" type="line"/>
      <point x="489" y="676"/>
      <point x="452" y="689"/>
      <point x="417" y="688" type="curve" smooth="yes"/>
      <point x="348" y="688"/>
      <point x="289" y="637"/>
      <point x="289" y="565" type="curve" smooth="yes"/>
      <point x="289" y="500" type="line"/>
      <point x="440" y="500" type="line"/>
      <point x="433" y="484" type="line"/>
      <point x="289" y="484" type="line"/>
      <point x="289" y="0" type="line"/>
      <point x="269" y="0" type="line"/>
      <point x="269" y="561" type="line" smooth="yes"/>
      <point x="269" y="596"/>
      <point x="279" y="625"/>
      <point x="299" y="650" type="curve"/>
      <point x="267" y="676"/>
      <point x="228" y="688"/>
      <point x="190" y="689" type="curve" smooth="yes"/>
      <point x="121" y="691"/>
      <point x="59" y="644"/>
      <point x="59" y="559" type="curve" smooth="yes"/>
      <point x="59" y="500" type="line"/>
      <point x="210" y="500" type="line"/>
      <point x="202" y="484" type="line"/>
      <point x="59" y="484" type="line"/>
      <point x="59" y="0" type="line"/>
      <point x="39" y="0" type="line"/>
      <point x="39" y="561" type="line" smooth="yes"/>
      <point x="39" y="660"/>
      <point x="120" y="706"/>
      <point x="181" y="706" type="curve" smooth="yes"/>
      <point x="221" y="706"/>
      <point x="259" y="699"/>
      <point x="313" y="664" type="curve"/>
      <point x="336" y="687"/>
      <point x="373" y="705"/>
      <point x="417" y="705" type="curve" smooth="yes"/>
      <point x="462" y="705"/>
      <point x="500" y="688"/>
      <point x="536" y="656" type="curve"/>
      <point x="536" y="0" type="line"/>
      <point x="519" y="0" type="line"/>
    </contour>
  </outline>
</glyph>
<glyph name="commaturnedabove" format="2">
  <advance width="267"/>
  <outline>
    <contour>
      <point x="158" y="681" type="line"/>
      <point x="139" y="663"/>
      <point x="134" y="641"/>
      <point x="132" y="626" type="curve"/>
      <point x="138" y="623"/>
      <point x="143" y="618"/>
      <point x="143" y="610" type="curve" smooth="yes"/>
      <point x="143" y="600"/>
      <point x="136" y="594"/>
      <point x="127" y="594" type="curve" smooth="yes"/>
      <point x="117" y="594"/>
      <point x="110" y="600"/>
      <point x="110" y="610" type="curve" smooth="yes"/>
      <point x="110" y="663"/>
      <point x="149" y="687"/>
      <point x="149" y="687" type="curve"/>
    </contour>
  </outline>
</glyph>
<glyph name="dieresistonoscomb" format="1">
  <advance width="267" height="962"/>
  <outline>
    <contour>
      <point x="71" y="692" type="curve" smooth="yes"/>
      <point x="71" y="683"/>
      <point x="64" y="675"/>
      <point x="54" y="675" type="curve" smooth="yes"/>
      <point x="45" y="675"/>
      <point x="36" y="683"/>
      <point x="36" y="692" type="curve" smooth="yes"/>
      <point x="36" y="703"/>
      <point x="45" y="708"/>
      <point x="54" y="708" type="curve" smooth="yes"/>
      <point x="64" y="708"/>
      <point x="71" y="703"/>
    </contour>
    <contour>
      <point x="230" y="692" type="curve" smooth="yes"/>
      <point x="230" y="683"/>
      <point x="222" y="675"/>
      <point x="212" y="675" type="curve" smooth="yes"/>
      <point x="202" y="675"/>
      <point x="196" y="683"/>
      <point x="196" y="692" type="curve" smooth="yes"/>
      <point x="196" y="703"/>
      <point x="202" y="708"/>
      <point x="212" y="708" type="curve" smooth="yes"/>
      <point x="222" y="708"/>
      <point x="230" y="703"/>
    </contour>
    <contour>
      <point x="202" y="827" type="curve" smooth="yes"/>
      <point x="147" y="726" type="line"/>
      <point x="125" y="726" type="line"/>
      <point x="176" y="840" type="line" smooth="yes"/>
      <point x="181" y="852"/>
      <point x="191" y="853"/>
      <point x="198" y="848" type="curve" smooth="yes"/>
      <point x="205" y="844"/>
      <point x="207" y="836"/>
    </contour>
  </outline>
</glyph>
<glyph name="t_t" format="2">
  <advance width="405"/>
  <outline>
    <component base="t" xOffset="165"/>
    <contour>
      <point x="60" y="132" type="line" smooth="yes"/>
      <point x="60" y="59"/>
      <point x="86" y="27"/>
      <point x="152" y="4" type="curve"/>
      <point x="145" y="-13" type="line"/>
      <point x="72" y="9"/>
      <point x="40" y="54"/>
      <point x="40" y="132" type="curve" smooth="yes"/>
      <point x="40" y="700" type="line"/>
      <point x="60" y="700" type="line"/>
      <point x="60" y="500" type="line"/>
      <point x="212" y="500" type="line"/>
      <point x="212" y="482" type="line"/>
      <point x="60" y="482" type="line"/>
    </contour>
  </outline>
</glyph>
